<?xml version="1.0" encoding="utf-8"?>
<!-- Generator: Adobe Illustrator 23.0.3, SVG Export Plug-In . SVG Version: 6.00 Build 0)  -->
<svg version="1.1" id="Layer_1" xmlns="http://www.w3.org/2000/svg" xmlns:xlink="http://www.w3.org/1999/xlink" x="0px" y="0px"
	 viewBox="0 0 66.3 66.3" style="enable-background:new 0 0 66.3 66.3;" xml:space="preserve">
<style type="text/css">
	.st0{fill:url(#Rectangle_49_1_);}
	.st1{fill-rule:evenodd;clip-rule:evenodd;fill:#FFFFFF;}
</style>
<g id="Group_135" transform="translate(-20 -20)">
	
		<linearGradient id="Rectangle_49_1_" gradientUnits="userSpaceOnUse" x1="5.3165" y1="71.6125" x2="5.9705" y2="70.4805" gradientTransform="matrix(66.271 0 0 -66.271 -320.8645 4761.4609)">
		<stop  offset="0" style="stop-color:#FF1744"/>
		<stop  offset="0.367" style="stop-color:#FD1642"/>
		<stop  offset="0.5838" style="stop-color:#F4133D"/>
		<stop  offset="0.7616" style="stop-color:#E60D33"/>
		<stop  offset="0.9173" style="stop-color:#D20526"/>
		<stop  offset="1" style="stop-color:#C4001D"/>
	</linearGradient>
	<path id="Rectangle_49" class="st0" d="M32,20h42.3c6.6,0,12,5.4,12,12v42.3c0,6.6-5.4,12-12,12H32c-6.6,0-12-5.4-12-12V32
		C20,25.4,25.4,20,32,20z"/>
	<g id="Group_134" transform="translate(30.785 47.871)">
		<path id="Path_1473" class="st1" d="M31.3,0.1c-2.9,0-5.3,2.4-5.3,5.3c0,2.6,1.9,4.9,4.5,5.3V7.9c-1.4-0.4-2.2-1.9-1.7-3.3
			s1.9-2.2,3.3-1.7s2.2,1.9,1.7,3.3c-0.3,0.8-0.9,1.5-1.7,1.7v2.7c2.9-0.4,4.9-3.1,4.5-6C36.2,2,33.9,0.1,31.3,0.1L31.3,0.1z"/>
		<path id="Path_1474" class="st1" d="M12.1,3.9c0-0.3,0.1-0.7,0.4-0.9c0.2-0.2,0.6-0.4,0.9-0.4h2.8V0h-3c-1-0.1-2,0.3-2.8,1
			c-0.7,0.8-1.1,1.8-1,2.8v3.1c-0.1,1,0.3,2,1,2.8c0.8,0.7,1.8,1,2.8,1h3V7.9h-2.8c-0.3,0-0.7-0.1-0.9-0.4c-0.2-0.2-0.4-0.5-0.4-0.9
			L12.1,3.9z"/>
		<path id="Path_1475" class="st1" d="M24.4,0h-6.5h-0.1v2.7h0.1h3.7l-3.8,4.5v3.4c0.1,0,0.2,0,0.2,0h6.4c0.4,0,0.7-0.1,1-0.4
			c0.5-0.5,0.5-1.4,0-1.9c0,0,0,0,0,0c-0.3-0.3-0.6-0.4-1-0.4h-3.7l4.7-5.6c0.2-0.3,0.3-0.6,0.3-0.9c0-0.4-0.1-0.7-0.4-1
			C25.1,0.2,24.7,0,24.4,0z"/>
		<path id="Path_1476" class="st1" d="M13.4,4h2.5c0.4,0,0.7,0.1,1,0.4c0.3,0.2,0.4,0.6,0.4,0.9c0,0.4-0.1,0.7-0.4,1
			c-0.3,0.3-0.6,0.4-1,0.4h-2.5V4z"/>
		<path id="Path_1477" class="st1" d="M37.4,1.2c0-0.3,0.2-0.6,0.5-0.8C38.1,0.2,38.5,0,38.8,0c0.3,0,0.6,0.1,0.9,0.4
			c0.3,0.2,0.4,0.5,0.4,0.8v5.6c0,0.3,0.1,0.6,0.3,0.8c0.2,0.2,0.5,0.3,0.8,0.3h2.1c0.4,0,0.7,0.2,0.9,0.4c0.5,0.5,0.5,1.4,0,1.9
			c-0.2,0.3-0.6,0.4-0.9,0.4h-2.6c-1.6,0.2-3.1-1-3.3-2.7c0-0.2,0-0.4,0-0.6L37.4,1.2z"/>
		<path id="Path_1478" class="st1" d="M1.3,0C1,0,0.6,0.2,0.4,0.4C0.1,0.7,0,1,0,1.4c0,0.4,0.1,0.7,0.4,1C0.6,2.6,1,2.7,1.3,2.7h1.9
			v6.7c0,0.3,0.2,0.7,0.4,0.9c0.3,0.3,0.6,0.4,0.9,0.4c0.4,0,0.7-0.1,1-0.4c0.2-0.2,0.4-0.6,0.4-0.9V2.7h2c0.3,0,0.6-0.2,0.8-0.4
			c0.2-0.3,0.4-0.6,0.4-1C9.2,1,9,0.7,8.8,0.4C8.6,0.2,8.2,0,7.9,0L1.3,0z"/>
	</g>
</g>
</svg>
