<?xml version="1.0" encoding="utf-8"?>
<!-- Generator: Adobe Illustrator 23.0.3, SVG Export Plug-In . SVG Version: 6.00 Build 0)  -->
<svg version="1.1" id="Layer_1" xmlns="http://www.w3.org/2000/svg" xmlns:xlink="http://www.w3.org/1999/xlink" x="0px" y="0px"
	 viewBox="0 0 270.8 188.2" style="enable-background:new 0 0 270.8 188.2;" xml:space="preserve">
<style type="text/css">
	.st0{fill:url(#Path_1358_1_);}
	.st1{fill:url(#Path_1359_1_);}
	.st2{fill:url(#Path_1360_1_);}
	.st3{fill:#FFFFFF;}
	.st4{fill:#FF1744;}
	.st5{fill:url(#Rectangle_17_1_);}
	.st6{opacity:0.3;fill:#231F20;enable-background:new    ;}
	.st7{opacity:0.1;fill:#FFFFFF;enable-background:new    ;}
	.st8{opacity:0.1;fill:#525D7A;enable-background:new    ;}
	.st9{fill:#413068;}
	.st10{opacity:0.2;fill:#525D7A;enable-background:new    ;}
	.st11{fill:#FF6986;}
	.st12{fill:url(#Path_1382_1_);}
	.st13{fill:#56408B;}
	.st14{fill:url(#Path_1387_1_);}
	.st15{opacity:0.25;fill:#525D7A;enable-background:new    ;}
	.st16{fill:url(#Path_1389_1_);}
	.st17{fill:#333333;}
	.st18{opacity:0.2;fill:#56408B;enable-background:new    ;}
	.st19{fill:url(#Rectangle_32_1_);}
	.st20{opacity:0.42;fill:#FFFFFF;enable-background:new    ;}
	.st21{opacity:0.3;fill:#525D7A;enable-background:new    ;}
	.st22{fill:url(#Rectangle_33_1_);}
	.st23{opacity:0.15;fill:#525D7A;enable-background:new    ;}
	.st24{fill:url(#Rectangle_37_1_);}
	.st25{fill:url(#Rectangle_38_1_);}
	.st26{fill:url(#Rectangle_39_1_);}
	.st27{fill:url(#Path_1404_1_);}
	.st28{fill:#74B300;}
	.st29{fill:#525D7A;}
	.st30{opacity:0.15;}
</style>
<g id="Group_68" transform="translate(-184.372 -91.257)">
	<g id="Layer_8" transform="translate(240.545 91.257)">
		
			<linearGradient id="Path_1358_1_" gradientUnits="userSpaceOnUse" x1="-165.6244" y1="343.8625" x2="-166.1295" y2="343.3517" gradientTransform="matrix(360.88 0 0 -306.758 59938.3398 105522.1484)">
			<stop  offset="0" style="stop-color:#DDFF66"/>
			<stop  offset="0.246" style="stop-color:#D7FC60"/>
			<stop  offset="0.55" style="stop-color:#C9F551"/>
			<stop  offset="0.885" style="stop-color:#B1E938"/>
			<stop  offset="1" style="stop-color:#A8E52E"/>
		</linearGradient>
		<path id="Path_1358" class="st0" d="M185.9,119.4c0-51.9-42.1-109.7-94-109.7S-23.6,67.5-23.6,119.4S40,187.7,91.9,187.7
			S185.9,171.3,185.9,119.4z"/>
		
			<linearGradient id="Path_1359_1_" gradientUnits="userSpaceOnUse" x1="-166.1434" y1="343.344" x2="-165.7086" y2="343.8873" gradientTransform="matrix(323.978 0 0 -306.758 53879.5391 105505.5078)">
			<stop  offset="0" style="stop-color:#74B300"/>
			<stop  offset="1" style="stop-color:#A8E52E"/>
		</linearGradient>
		<path id="Path_1359" class="st1" d="M214.6,109.7c0-51.9-42.1-109.7-94-109.7s-94,57.8-94,109.7s42.1,68.3,94,68.3
			S214.6,161.7,214.6,109.7z"/>
	</g>
	<g id="Layer_6" transform="translate(184.372 181.145)">
		<g id="Group_34" transform="translate(45.288 27.894)">
			<g id="Group_31">
				<g id="Group_30">
					
						<linearGradient id="Path_1360_1_" gradientUnits="userSpaceOnUse" x1="-152.4237" y1="220.8457" x2="-151.925" y2="220.372" gradientTransform="matrix(44.2519 0 0 -44.0435 6729.4531 9681.3242)">
						<stop  offset="0" style="stop-color:#FF5C7B"/>
						<stop  offset="1.000000e-02" style="stop-color:#FF5B7A"/>
						<stop  offset="0.672" style="stop-color:#FF2A53"/>
						<stop  offset="1" style="stop-color:#FF1744"/>
					</linearGradient>
					<path id="Path_1360" class="st2" d="M6.6-24.8l-1.2-6.7c2.9-6.4,0-14-6.4-16.9s-14,0-16.9,6.4s0,14,6.4,16.9
						c3.9,1.7,8.4,1.4,12-0.8L6.6-24.8z"/>
				</g>
			</g>
			<g id="Group_33" transform="translate(11.725 13.972)">
				<g id="Group_32">
					<path id="Path_1361" class="st3" d="M-23.9-51.8c0-1.9,1.6-3.5,3.5-3.5c0.9,0,1.8,0.4,2.5,1.1c1.3-1.4,3.6-1.4,4.9-0.1
						c1.4,1.3,1.4,3.6,0.1,4.9l0,0l-5,5l-5.1-5.1c-0.1-0.1-0.2-0.2-0.2-0.2C-23.7-50.3-23.9-51-23.9-51.8z"/>
				</g>
			</g>
		</g>
		<g id="Group_37" transform="translate(191.308)">
			<path id="Path_1362" class="st4" d="M-15.6,98.2h-58.8c-3.2,0-5.9-2.6-5.9-5.9V-31.8c0-3.2,2.6-5.9,5.9-5.9h58.8
				c3.2,0,5.9,2.6,5.9,5.9V92.3C-9.7,95.6-12.3,98.2-15.6,98.2z"/>
			
				<linearGradient id="Rectangle_17_1_" gradientUnits="userSpaceOnUse" x1="-301.0211" y1="253.237" x2="-300.4406" y2="253.237" gradientTransform="matrix(121.112 0 0 -174.769 36377.0117 44286.6523)">
				<stop  offset="0" style="stop-color:#651FFF"/>
				<stop  offset="9.000000e-03" style="stop-color:#6620FF"/>
				<stop  offset="0.209" style="stop-color:#7F45FF"/>
				<stop  offset="0.41" style="stop-color:#9362FF"/>
				<stop  offset="0.61" style="stop-color:#A176FF"/>
				<stop  offset="0.807" style="stop-color:#AA82FF"/>
				<stop  offset="1" style="stop-color:#AD87FF"/>
			</linearGradient>
			<rect id="Rectangle_17" x="-80.3" y="-22" class="st5" width="70.3" height="101.5"/>
			<path id="Path_1363" class="st6" d="M-39.8,88.2c0,2.8-2.3,5.1-5.1,5.1c-2.8,0-5.1-2.3-5.1-5.1c0-2.8,2.3-5.1,5.1-5.1
				c0,0,0,0,0,0C-42.1,83.1-39.8,85.4-39.8,88.2z"/>
			<path id="Path_1364" class="st7" d="M-73.9-37.7h5.9c-3.5,0-6.4,2.9-6.4,6.4l0,0V91.8c0,3.5,2.9,6.4,6.4,6.4c0,0,0,0,0,0h-5.9
				c-3.5,0-6.4-2.9-6.4-6.4c0,0,0,0,0,0V-31.3C-80.3-34.8-77.4-37.7-73.9-37.7z"/>
			<path id="Path_1365" class="st8" d="M-16.3-37.7h-5.9c3.5,0,6.4,2.9,6.4,6.4V91.8c0,3.5-2.9,6.4-6.4,6.4c0,0,0,0,0,0h5.9
				c3.5,0,6.4-2.9,6.4-6.4c0,0,0,0,0,0V-31.3C-9.9-34.8-12.8-37.7-16.3-37.7z"/>
			<g id="Group_35" transform="translate(43.346 13.208)">
				<rect id="Rectangle_18" x="-98.4" y="-43.2" class="st9" width="13.5" height="0.9"/>
			</g>
			<g id="Group_36" transform="translate(69.004 13.208)">
				<rect id="Rectangle_19" x="-109.2" y="-43.2" class="st9" width="3.7" height="0.9"/>
			</g>
		</g>
		<path id="Path_1366" class="st10" d="M181.6-20.4L181.6-20.4L181.6-20.4c0,0-0.1-0.1-0.1,0h-70.3l0,0c0,0-0.1,0-0.1,0v0.2
			c0-0.1,0-0.1,0-0.2c-0.1,0.1-0.1,0.2-0.2,0.3v4.9c0,0.1,0.1,0.2,0.2,0.2c0,0,0,0,0,0V2.9c0,0,0.1,0,0.1,0c2.7-0.2,4.2-1.5,5-3.4
			c0.5-1,0.8-2,0.8-3.1c0,0,0-0.1,0-0.1c0,0,0,0.1,0,0.1c0,1.1,0.3,2.2,0.8,3.1c0.8,1.9,2.4,3.2,5,3.4c2.7-0.2,4.2-1.5,5-3.4
			c0.5-1,0.8-2,0.8-3.1c0,0,0-0.1,0-0.1c0,0,0,0.1,0,0.1c0,1.1,0.3,2.2,0.8,3.1c0.8,1.9,2.4,3.2,5,3.4c2.7-0.2,4.2-1.5,5-3.4
			c0.5-1,0.8-2,0.8-3.1c0,0,0-0.1,0-0.1c0,0,0,0.1,0,0.1c0,1.1,0.3,2.2,0.8,3.1c0.8,1.9,2.4,3.2,5,3.4c2.7-0.2,4.2-1.5,5-3.4
			c0.5-1,0.8-2,0.8-3.1c0,0,0-0.1,0-0.1c0,0,0,0.1,0,0.1c0,1.1,0.3,2.2,0.8,3.1c0.8,1.9,2.4,3.2,5,3.4c2.7-0.2,4.2-1.5,5-3.4
			c0.5-1,0.8-2,0.8-3.1c0,0,0-0.1,0-0.1c0,0,0,0.1,0,0.1c0,1.1,0.3,2.2,0.8,3.1c0.8,1.9,2.4,3.2,5,3.4c2.7-0.2,4.2-1.5,5-3.4
			c0.4-0.7,0.6-1.5,0.8-2.4c0.1,0.9,0.4,1.8,0.9,2.6c1.3,2.3,3.2,3.2,5.2,3.1V-15c0.1,0,0.2-0.1,0.2-0.2c0,0,0,0,0,0v-4.9
			L181.6-20.4z"/>
		<g id="Group_38" transform="translate(181.443 26.481)">
			<path id="Path_1367" class="st4" d="M-70.3-25.8L-70.3-25.8c-3.2,0-5.9-3-5.9-6.6v-8.1h11.7v8.1C-64.4-28.8-67-25.8-70.3-25.8z"
				/>
			<path id="Path_1368" class="st11" d="M-60.2-48.8h-10.1l-5.8,8.2h11.7L-60.2-48.8z"/>
			<path id="Path_1369" class="st3" d="M-58.5-25.8L-58.5-25.8c-3.2,0-5.9-3-5.9-6.6v-8.1h11.7v8.1C-52.7-28.8-55.3-25.8-58.5-25.8z
				"/>
			<path id="Path_1370" class="st3" d="M-50.2-48.8h-10.1l-4.2,8.2h11.7L-50.2-48.8z"/>
			<path id="Path_1371" class="st4" d="M-46.8-25.8L-46.8-25.8c-3.2,0-5.9-3-5.9-6.6v-8.1H-41v8.1C-41-28.8-43.6-25.8-46.8-25.8z"/>
			<path id="Path_1372" class="st11" d="M-40.1-48.8h-10.1l-2.5,8.2H-41L-40.1-48.8z"/>
			<path id="Path_1373" class="st3" d="M-35.1-25.8L-35.1-25.8c-3.2,0-5.9-3-5.9-6.6v-8.1h11.7v8.1C-29.3-28.8-31.9-25.8-35.1-25.8z
				"/>
			<path id="Path_1374" class="st3" d="M-30.1-48.8h-10.1l-0.8,8.2h11.7L-30.1-48.8z"/>
			<path id="Path_1375" class="st4" d="M-23.4-25.8L-23.4-25.8c-3.2,0-5.9-3-5.9-6.6v-8.1h11.7v8.1C-17.5-28.8-20.2-25.8-23.4-25.8z
				"/>
			<path id="Path_1376" class="st11" d="M-16.5-48.8h-14.2l1.5,8.2h11.7L-16.5-48.8z"/>
			<path id="Path_1377" class="st3" d="M-11.7-25.8L-11.7-25.8c-3.2,0-5.9-3-5.9-6.6v-8.1h11.7v8.1C-5.8-28.8-8.5-25.8-11.7-25.8z"
				/>
			<path id="Path_1378" class="st3" d="M-10-48.8H-20l2.5,8.2h11.7L-10-48.8z"/>
			<path id="Path_1379" class="st11" d="M0.1-48.8H-10l4.2,8.2H5.9L0.1-48.8z"/>
			<path id="Path_1380" class="st4" d="M0-25.8L0-25.8c-3.2,0-5.9-3-5.9-6.6v-8.1H5.9v8.1C5.9-28.8,3.3-25.8,0-25.8z"/>
		</g>
		<g id="Group_43" transform="translate(227.549 65.686)">
			<g id="Group_40" transform="translate(0 40.741)">
				<path id="Path_1381" class="st6" d="M-87.1-81.6l-6.8,6l-1.5,29.2l7.6,0.9l12.6,0.5l3.5-29.3l-6.3-7.6l-6.4-0.1l-1.9-0.1
					L-87.1-81.6z M-80.3-78c0,0.2-0.1,0.5-0.2,0.7c0,0,0.2,0.3,0.2,0.3l-0.3-0.2c-0.3,0.8-1.8,1.1-2.7,1c-1.1-0.1-1.7-1.3-1.6-2.4
					c0-0.2,0.1-0.4,0.2-0.6c0.3-0.8,1-1.7,1.9-1.7C-81.7-80.9-80.3-79.1-80.3-78L-80.3-78z"/>
				
					<linearGradient id="Path_1382_1_" gradientUnits="userSpaceOnUse" x1="-336.1217" y1="144.3196" x2="-335.9586" y2="144.8786" gradientTransform="matrix(39.314 0 0 -64.294 13129.1172 9233.5527)">
					<stop  offset="0" style="stop-color:#FF1744"/>
					<stop  offset="0.193" style="stop-color:#FF1B47"/>
					<stop  offset="0.406" style="stop-color:#FF2852"/>
					<stop  offset="0.628" style="stop-color:#FF3E64"/>
					<stop  offset="0.855" style="stop-color:#FF5D7C"/>
					<stop  offset="1" style="stop-color:#FF7590"/>
				</linearGradient>
				<path id="Path_1382" class="st12" d="M-71.1-75.5l-7.2-6.8h-8.5l-7.1,6.8V-45h22.8V-75.5z M-84.5-78.5c0-1.1,0.9-1.9,1.9-1.9
					c1.1,0,1.9,0.9,1.9,1.9c0,1.1-0.9,1.9-1.9,1.9c0,0,0,0,0,0C-83.7-76.6-84.5-77.4-84.5-78.5C-84.5-78.5-84.5-78.5-84.5-78.5
					L-84.5-78.5z"/>
				<path id="Path_1383" class="st3" d="M-74.6-60.7c0,4.4-3.6,8-8,8c-4.4,0-8-3.6-8-8s3.6-8,8-8C-78.2-68.7-74.6-65.1-74.6-60.7
					C-74.6-60.7-74.6-60.7-74.6-60.7z"/>
				<g id="Group_39" transform="translate(13.714 28.431)">
					<path id="Path_1384" class="st13" d="M-97.5-93.6c0.8,0.9,0.8,2.3,0,3.2c-0.8,0.8-2.1,0.9-3,0.1c0,0-0.1-0.1-0.1-0.1
						c-0.8-0.9-0.8-2.3,0-3.2C-99.8-94.5-98.5-94.5-97.5-93.6C-97.6-93.7-97.6-93.7-97.5-93.6z M-91.7-94l-7.3,9.9h-1.8l7.3-9.9
						H-91.7z M-98.5-91.3c0.2-0.2,0.2-0.5,0.2-0.7c0-0.3-0.1-0.5-0.2-0.7c-0.1-0.2-0.4-0.3-0.6-0.3c-0.2,0-0.4,0.1-0.6,0.3
						c-0.2,0.2-0.2,0.5-0.2,0.7c0,0.3,0.1,0.5,0.2,0.7c0.1,0.2,0.4,0.3,0.6,0.3C-98.8-91-98.6-91.1-98.5-91.3L-98.5-91.3z
						 M-91.9-87.9c0.8,0.9,0.8,2.3,0,3.2c-0.8,0.8-2.1,0.9-3,0.1c0,0-0.1-0.1-0.1-0.1c-0.8-0.9-0.8-2.3,0-3.2c0.8-0.8,2.1-0.9,3-0.1
						C-91.9-87.9-91.9-87.9-91.9-87.9L-91.9-87.9z M-92.8-85.5c0.2-0.2,0.2-0.5,0.2-0.7c0-0.3-0.1-0.5-0.2-0.7
						c-0.1-0.2-0.4-0.3-0.6-0.3c-0.2,0-0.4,0.1-0.6,0.3c-0.2,0.2-0.2,0.5-0.2,0.7c0,0.3,0.1,0.5,0.2,0.7c0.1,0.2,0.4,0.3,0.6,0.3
						C-93.2-85.2-92.9-85.3-92.8-85.5L-92.8-85.5z"/>
				</g>
			</g>
			<g id="Group_41" transform="translate(21.849)">
				<path id="Path_1385" class="st13" d="M-98.6-48.3l-0.9,0c0-0.8-0.5-1.7-1.6-2.6c-0.2-0.2-0.4-0.3-0.6-0.5
					c-0.8-0.6-1.5-1.3-2.1-2.1c-1.1-1.8-0.6-4-0.2-5.9c0.5-2.6,0.3-4.9-0.6-5.9l1,0.2c1.1,1.3,1,3,0.4,5.9c-0.4,1.9-0.8,3.8,0.1,5.3
					c0.5,0.7,1.1,1.3,1.8,1.8c0.2,0.2,0.4,0.3,0.6,0.5C-99.3-50.5-98.6-49.4-98.6-48.3z"/>
			</g>
			<g id="Group_42" transform="translate(20.574 29.206)">
				<path id="Path_1386" class="st13" d="M-103.2-68.4c-0.5-0.4-0.8-0.9-0.9-1.6c-0.1-0.9,0.1-1.8,0.7-2.6c0.7-0.8,1.5-1.4,2.4-1.9
					c0.3-0.2,0.5-0.3,0.8-0.5c0.9-0.6,1.9-1.5,1.9-2.7h0.9c0,1.6-1.2,2.7-2.3,3.4c-0.3,0.2-0.6,0.4-0.8,0.5c-0.8,0.4-1.5,1-2.1,1.7
					c-0.4,0.5-0.6,1.2-0.5,1.8c0,0.4,0.2,0.7,0.5,0.9L-103.2-68.4z"/>
			</g>
		</g>
		<g id="Group_44" transform="translate(7.002 120.409)">
			
				<linearGradient id="Path_1387_1_" gradientUnits="userSpaceOnUse" x1="-113.3692" y1="130.5908" x2="-112.7887" y2="130.5908" gradientTransform="matrix(38.859 0 0 -60.935 4402.4766 7893.7803)">
				<stop  offset="0" style="stop-color:#74B300"/>
				<stop  offset="1" style="stop-color:#A8E52E"/>
			</linearGradient>
			<path id="Path_1387" class="st14" d="M19.6-46.1l-22.2-2.7l-0.4-32.6h22.4L19.6-46.1z"/>
			<path id="Path_1388" class="st15" d="M11.6-47.1l8,1l-0.2-35.4h-8.2L11.6-47.1z"/>
			
				<linearGradient id="Path_1389_1_" gradientUnits="userSpaceOnUse" x1="-113.7998" y1="131.0172" x2="-113.2402" y2="131.5605" gradientTransform="matrix(40.332 0 0 -75.357 4602.5063 9824.8145)">
				<stop  offset="0" style="stop-color:#FF1744"/>
				<stop  offset="0.193" style="stop-color:#FF1B47"/>
				<stop  offset="0.406" style="stop-color:#FF2852"/>
				<stop  offset="0.628" style="stop-color:#FF3E64"/>
				<stop  offset="0.855" style="stop-color:#FF5D7C"/>
				<stop  offset="1" style="stop-color:#FF7590"/>
			</linearGradient>
			<path id="Path_1389" class="st16" d="M32.6-44.5L13.2-47l-0.4-41.2h23.4v32.7L32.6-44.5z"/>
		</g>
		<g id="Group_59" transform="translate(0 132.809)">
			<g id="Group_45" transform="translate(0 7.141)">
				<path id="Path_1390" class="st17" d="M39.9-63.5L2.5-68.1c-1.2-0.1-2-1.1-2.1-2.3L0-87.7c0-1.2,0.8-2.2,2-2.4l48.8-6.3
					L39.9-63.5z M49.4-95.3L2.2-89.2c-0.7,0.1-1.2,0.7-1.2,1.4l0.5,17.4c0,0.7,0.5,1.3,1.2,1.3l36.6,4.5L49.4-95.3z"/>
			</g>
			<g id="Group_46" transform="translate(6.191 18.312)">
				
					<rect id="Rectangle_20" x="-2.4" y="-101.1" transform="matrix(0.9999 -1.699754e-02 1.699754e-02 0.9999 1.5349 -4.607677e-02)" class="st17" width="0.9" height="21.6"/>
			</g>
			<g id="Group_47" transform="translate(16.74 20.023)">
				
					<rect id="Rectangle_21" x="-6.8" y="-101.8" transform="matrix(0.9998 -1.748731e-02 1.748731e-02 0.9998 1.591 -0.1252)" class="st17" width="0.9" height="21.6"/>
			</g>
			<g id="Group_48" transform="translate(16.74 17.205)">
				
					<rect id="Rectangle_22" x="-6.8" y="-100.6" transform="matrix(0.9999 -1.599795e-02 1.599795e-02 0.9999 1.4235 -0.1132)" class="st17" width="0.9" height="23.2"/>
			</g>
			<g id="Group_49" transform="translate(27.288 15.393)">
				
					<rect id="Rectangle_23" x="-11.3" y="-99.9" transform="matrix(0.9999 -1.518378e-02 1.518378e-02 0.9999 1.3267 -0.1739)" class="st17" width="0.9" height="24.8"/>
			</g>
			<g id="Group_50" transform="translate(37.836 14.286)">
				
					<rect id="Rectangle_24" x="-15.7" y="-99.4" transform="matrix(0.9999 -1.446828e-02 1.446828e-02 0.9999 1.2482 -0.2291)" class="st17" width="0.9" height="26.1"/>
			</g>
			<g id="Group_51" transform="translate(48.385 13.179)">
				
					<rect id="Rectangle_25" x="-20.1" y="-98.9" transform="matrix(0.9999 -1.399863e-02 1.399863e-02 0.9999 1.1893 -0.2832)" class="st17" width="0.9" height="27.7"/>
			</g>
			<g id="Group_52" transform="translate(68.833 10.064)">
				
					<rect id="Rectangle_26" x="-28.7" y="-97.6" transform="matrix(0.9999 -1.389237e-02 1.389237e-02 0.9999 1.1654 -0.4001)" class="st17" width="0.9" height="27.1"/>
			</g>
			<g id="Group_53" transform="translate(58.933 11.366)">
				
					<rect id="Rectangle_27" x="-24.5" y="-98.2" transform="matrix(0.9999 -1.284527e-02 1.284527e-02 0.9999 1.0708 -0.316)" class="st17" width="0.9" height="29.3"/>
			</g>
			<g id="Group_54" transform="translate(0.825 14.599)">
				
					<rect id="Rectangle_28" x="-0.5" y="-96.4" transform="matrix(0.9917 -0.1288 0.1288 0.9917 12.5593 2.2671)" class="st17" width="48.6" height="0.9"/>
			</g>
			<g id="Group_55" transform="translate(0.929 34.724)">
				<rect id="Rectangle_29" x="-0.4" y="-108" class="st17" width="44.3" height="0.9"/>
			</g>
			<g id="Group_56" transform="translate(1.386 44.932)">
				
					<rect id="Rectangle_30" x="19" y="-129.6" transform="matrix(0.1142 -0.9935 0.9935 0.1142 126.015 -77.6847)" class="st17" width="0.9" height="40.2"/>
			</g>
			<g id="Group_57" transform="translate(63.286 2.046)">
				<path id="Path_1391" class="st17" d="M-25-52.4l-1.6-0.5l13.1-39.5c0.4-1.1,1.4-1.9,2.6-1.9h2.7v1.6h-2.7
					c-0.5,0-0.9,0.3-1.1,0.8L-25-52.4z"/>
			</g>
			<g id="Group_58" transform="translate(8.425 70.815)">
				<path id="Path_1392" class="st17" d="M39.9-111.8h-1.6v-1.5l-9.2-8.1l-31,5.4v4.1h-1.6v-5.5l33.1-5.8l10.3,9.1L39.9-111.8z"/>
			</g>
			<path id="Path_1393" class="st17" d="M58.6-91.4c0,1.1-0.9,2-2,2s-2-0.9-2-2c0-1.1,0.9-2,2-2S58.6-92.5,58.6-91.4L58.6-91.4z"/>
			<path id="Path_1394" class="st17" d="M40.9-51.4c0,1.7-1.4,3.2-3.2,3.2c-1.7,0-3.2-1.4-3.2-3.2c0-1.7,1.4-3.2,3.2-3.2
				c0,0,0,0,0,0C39.5-54.6,40.9-53.2,40.9-51.4z"/>
			<path id="Path_1395" class="st17" d="M39.1-51.4c0,0.7-0.6,1.3-1.3,1.3c-0.7,0-1.3-0.6-1.3-1.3c0-0.7,0.6-1.3,1.3-1.3
				C38.5-52.7,39.1-52.2,39.1-51.4L39.1-51.4z"/>
			<path id="Path_1396" class="st17" d="M50.7-37.7c0,1.7-1.4,3.2-3.2,3.2c-1.7,0-3.2-1.4-3.2-3.2c0-1.7,1.4-3.2,3.2-3.2h0
				C49.3-40.8,50.7-39.4,50.7-37.7z"/>
			<path id="Path_1397" class="st17" d="M8.9-37.7c0,1.7-1.4,3.2-3.2,3.2c-1.7,0-3.2-1.4-3.2-3.2c0-1.7,1.4-3.2,3.2-3.2h0
				C7.4-40.8,8.9-39.4,8.9-37.7z"/>
			<path id="Path_1398" class="st17" d="M5.8-36.8L5.8-36.8c-0.9,0-1.7-0.8-1.7-1.7l0,0V-42h3.4v3.5C7.4-37.6,6.7-36.8,5.8-36.8
				L5.8-36.8z"/>
			<path id="Path_1399" class="st17" d="M47.5-36.4L47.5-36.4c-0.9,0-1.7-0.8-1.7-1.7l0,0v-3.5h3.4v3.5
				C49.2-37.1,48.5-36.4,47.5-36.4z"/>
			<path id="Path_1400" class="st17" d="M6.8-38.7c0,0.6-0.5,1.1-1.1,1.1c-0.6,0-1.1-0.5-1.1-1.1c0-0.6,0.5-1.1,1.1-1.1
				S6.8-39.3,6.8-38.7L6.8-38.7z"/>
			<circle id="Ellipse_7" class="st17" cx="47.4" cy="-38.7" r="1.1"/>
		</g>
		<path id="Rectangle_31" class="st18" d="M170.9,13.6h38.4c1.7,0,3.2,1.4,3.2,3.2v78c0,1.7-1.4,3.2-3.2,3.2h-38.4
			c-1.7,0-3.2-1.4-3.2-3.2v-78C167.7,15,169.1,13.6,170.9,13.6z"/>
		<g id="Group_60" transform="translate(294.514 88.433)">
			
				<linearGradient id="Rectangle_32_1_" gradientUnits="userSpaceOnUse" x1="-406.041" y1="165.9432" x2="-405.7333" y2="165.9432" gradientTransform="matrix(8.895652e-15 -145.277 -76.989 -4.714217e-15 12674.5957 -58998.7109)">
				<stop  offset="0" style="stop-color:#8F5CFF"/>
				<stop  offset="0.253" style="stop-color:#8C57FF"/>
				<stop  offset="0.512" style="stop-color:#834BFF"/>
				<stop  offset="0.773" style="stop-color:#7537FF"/>
				<stop  offset="1" style="stop-color:#651FFF"/>
			</linearGradient>
			<path id="Rectangle_32" class="st19" d="M-123.5,8.3v-81.9c0-0.7,0.5-1.2,1.2-1.2c0,0,0,0,0,0h42.3c0.7,0,1.2,0.5,1.2,1.2l0,0
				V8.3c0,0.7-0.5,1.2-1.2,1.2h-42.3C-123,9.5-123.5,9-123.5,8.3C-123.5,8.3-123.5,8.3-123.5,8.3z"/>
			<path id="Path_1401" class="st20" d="M-91.2-66.8h-19.6c0,3.6-2.9,6.5-6.5,6.5V-5c3.6,0,6.5,2.9,6.5,6.5c0,0,0,0,0,0h19.6
				c0-0.2-0.1-0.4-0.1-0.6c0-3.6,2.9-6.5,6.5-6.5v-54.7C-88.3-60.3-91.2-63.2-91.2-66.8C-91.2-66.8-91.2-66.8-91.2-66.8z
				 M-100.9-60.6c2,0,3.6,1.6,3.6,3.6s-1.6,3.6-3.6,3.6c-2,0-3.6-1.6-3.6-3.6c0,0,0,0,0,0C-104.5-59-102.9-60.6-100.9-60.6z
				 M-100.9-4.5c-2,0-3.6-1.6-3.6-3.6c0-2,1.6-3.6,3.6-3.6c2,0,3.6,1.6,3.6,3.6l0,0C-97.3-6.1-98.9-4.5-100.9-4.5
				C-100.9-4.5-100.9-4.5-100.9-4.5z M-100.9-19.2c-7.4,0-13.4-6-13.4-13.4s6-13.4,13.4-13.4s13.4,6,13.4,13.4
				C-87.5-25.2-93.5-19.2-100.9-19.2C-100.9-19.2-100.9-19.2-100.9-19.2z"/>
		</g>
		<path id="Path_1402" class="st21" d="M200.7,62.6h50.6c3,0,5.4,2.4,5.4,5.4c0,0,0,0,0,0v24.9c0,3-2.4,5.4-5.4,5.4c0,0,0,0,0,0
			h-50.6c-3,0-5.4-2.4-5.4-5.4c0,0,0,0,0,0V68C195.2,65,197.7,62.6,200.7,62.6C200.7,62.6,200.7,62.6,200.7,62.6z"/>
		<g id="Group_61" transform="translate(340.541 172.725)">
			
				<linearGradient id="Rectangle_33_1_" gradientUnits="userSpaceOnUse" x1="-450.5921" y1="84.9363" x2="-450.0447" y2="85.4489" gradientTransform="matrix(-105.781 0 0 61.536 -47748.1719 -5334.23)">
				<stop  offset="0" style="stop-color:#FF1744"/>
				<stop  offset="0.193" style="stop-color:#FF1B47"/>
				<stop  offset="0.406" style="stop-color:#FF2852"/>
				<stop  offset="0.628" style="stop-color:#FF3E64"/>
				<stop  offset="0.855" style="stop-color:#FF5D7C"/>
				<stop  offset="1" style="stop-color:#FF7590"/>
			</linearGradient>
			<path id="Rectangle_33" class="st22" d="M-85.4-74.4h-53.5c-2.2,0-3.9-1.8-3.9-3.9v-27.8c0-2.2,1.8-3.9,3.9-3.9h53.5
				c2.2,0,3.9,1.8,3.9,3.9v27.8C-81.5-76.2-83.2-74.4-85.4-74.4z"/>
			<path id="Path_1403" class="st23" d="M-137.2-110.2h3.7c-3.2,0-5.7,2.6-5.7,5.7v24.3c0,3.2,2.6,5.7,5.7,5.7h-3.7
				c-3.2,0-5.7-2.6-5.7-5.7v-24.3C-142.9-107.6-140.3-110.2-137.2-110.2z"/>
			<path id="Rectangle_34" class="st3" d="M-86.8-89.9h-10.5c-0.2,0-0.3-0.2-0.3-0.3v-10.5c0-0.2,0.2-0.3,0.3-0.3h10.5
				c0.2,0,0.3,0.2,0.3,0.3v10.5C-86.4-90-86.6-89.9-86.8-89.9z"/>
			<rect id="Rectangle_35" x="-98.8" y="-83.5" class="st13" width="13.5" height="3.4"/>
			<rect id="Rectangle_36" x="-133.4" y="-83.5" class="st13" width="31.3" height="3.4"/>
		</g>
		<g id="Group_64" transform="translate(267.496 189.294)">
			<g id="Group_63">
				
					<linearGradient id="Rectangle_37_1_" gradientUnits="userSpaceOnUse" x1="-374.0966" y1="60.8885" x2="-373.5161" y2="60.8885" gradientTransform="matrix(12.16 0 0 -45.026 4436.7998 2637.521)">
					<stop  offset="0" style="stop-color:#609400"/>
					<stop  offset="1" style="stop-color:#83B324"/>
				</linearGradient>
				<path id="Rectangle_37" class="st24" d="M-111.4-117.1h6.2l0,0V-91l0,0h-7.1l0,0v-25.3C-112.2-116.7-111.8-117.1-111.4-117.1
					C-111.4-117.1-111.4-117.1-111.4-117.1z"/>
				
					<linearGradient id="Rectangle_38_1_" gradientUnits="userSpaceOnUse" x1="-378.3348" y1="69.4572" x2="-378.3348" y2="70.0377" gradientTransform="matrix(-34.041 0 0 45.026 -12974.3604 -3244.4951)">
					<stop  offset="0" style="stop-color:#74B300"/>
					<stop  offset="1" style="stop-color:#A8E52E"/>
				</linearGradient>
				<path id="Rectangle_38" class="st25" d="M-86.2-91h-19.2l0,0v-26.1l0,0h19.2c0.3,0,0.6,0.3,0.6,0.6c0,0,0,0,0,0v25
					C-85.6-91.2-85.8-91-86.2-91z"/>
				
					<linearGradient id="Rectangle_39_1_" gradientUnits="userSpaceOnUse" x1="-370.346" y1="60.8885" x2="-369.7655" y2="60.8885" gradientTransform="matrix(6.082 0 0 -45.026 2140.2285 2637.521)">
					<stop  offset="0" style="stop-color:#74B300"/>
					<stop  offset="1" style="stop-color:#A8E52E"/>
				</linearGradient>
				<path id="Rectangle_39" class="st26" d="M-111.6-117.1h3l0,0V-91l0,0h-3.5l0,0v-25.6C-112.2-116.9-112-117.1-111.6-117.1z"/>
				
					<linearGradient id="Path_1404_1_" gradientUnits="userSpaceOnUse" x1="-374.0966" y1="38.6979" x2="-373.5161" y2="38.6979" gradientTransform="matrix(12.16 0 0 -7.194 4436.7993 185.3266)">
					<stop  offset="0" style="stop-color:#74B300"/>
					<stop  offset="1" style="stop-color:#A8E52E"/>
				</linearGradient>
				<path id="Path_1404" class="st27" d="M-105.2-91h-7.1l3.5-4.2L-105.2-91L-105.2-91z"/>
				<path id="Path_1405" class="st13" d="M-99.5-113c0,0.7-0.5,1.2-1.2,1.2s-1.2-0.5-1.2-1.2s0.5-1.2,1.2-1.2h0
					C-100.1-114.2-99.5-113.6-99.5-113z"/>
				<path id="Path_1406" class="st13" d="M-88.3-113c0,0.7-0.5,1.2-1.2,1.2s-1.2-0.5-1.2-1.2s0.5-1.2,1.2-1.2h0
					C-88.8-114.2-88.3-113.6-88.3-113z"/>
				<g id="Group_62" transform="translate(18.963 6.725)">
					<path id="Path_1407" class="st13" d="M-120.2-114.2v-5.4c0-0.2,0.1-0.3,0.3-0.3h0.4c0.2,0,0.3,0.1,0.3,0.3v5.4
						c0,2.9,2.3,5.2,5.2,5.2c2.9,0,5.2-2.3,5.2-5.2v-5.4c0-0.2,0.1-0.3,0.3-0.3h0.4c0.2,0,0.3,0.1,0.3,0.3v5.4
						c0,3.4-2.7,6.1-6.1,6.1S-120.2-110.9-120.2-114.2L-120.2-114.2z"/>
				</g>
			</g>
		</g>
		<g id="Group_67" transform="translate(92.548 47.046)">
			<rect id="Rectangle_40" x="-19.9" y="43.5" class="st3" width="4.5" height="4.2"/>
			
				<rect id="Rectangle_41" x="0.2" y="41.7" transform="matrix(0.7618 -0.6478 0.6478 0.7618 -27.8444 11.8226)" class="st3" width="3.8" height="4.2"/>
			<path id="Path_1408" class="st28" d="M-15.4-2.1l3.7,20.8l14.8,23l-3.5,2.7l-14.4-16.2l-5.1-8.4L-15.4-2.1z"/>
			<path id="Path_1409" class="st15" d="M-14.5,28.6l-0.6-7.8l0.7-17.7l-0.9-5.2l-4.5,21.9l5.1,8.4L-14.5,28.6z"/>
			<path id="Path_1410" class="st28" d="M-27.4-6.5v5.8l3.7,20.7l3.1,24.7h5.8l-1.9-23.9L-16,2.4c0-0.1,0.1-0.2,0.2-0.3l0,0
				c2.3-1.2,3.8-3.6,3.8-6.2v-1.7c0-1.1-0.4-2.1-1.1-2.9l0,0L-27.4-6.5z"/>
			<path id="Path_1411" class="st15" d="M-25.8-0.7v-2.8l-1.5,0.2l-0.1,2.6l3.7,20.7l3.1,24.7h1.6l-3.1-24.7L-25.8-0.7z"/>
			<path id="Path_1412" class="st29" d="M-21.6,44.7l-0.7,1.6l-2.9,1.5l-4.1,0.6c-0.8,0.1-1.4,0.8-1.4,1.6v0.7h17.7v-5.9h-0.7
				l-0.8,1.4l-5.3-0.1L-21.6,44.7z"/>
			<path id="Path_1413" class="st29" d="M-9,50.7l0.3-0.6c0.2-0.5,0.7-0.8,1.2-0.8l3-0.6l2.2-1.9v-2l2.9,0.8l3.1-2.6v-1.2l0.6-0.5
				l2.8,3.2l-7,6.3H-9z"/>
			<path id="Path_1414" class="st13" d="M-29.7,49.8l-0.7-0.8c-0.2,0.3-0.4,0.7-0.4,1v0.7h17.7V49l-0.8,0.8L-29.7,49.8z"/>
			<path id="Path_1415" class="st13" d="M5.8,42.9l-0.2,1.4L-0.3,50H-8l-0.3-0.4c-0.2,0.1-0.3,0.3-0.4,0.5L-9,50.7h9.1l7-6.3
				L5.8,42.9z"/>
			<rect id="Rectangle_42" x="-25.5" y="-44.8" class="st3" width="6.1" height="5.4"/>
			<path id="Path_1416" class="st23" d="M-25.5-44.8v4.6l0,0c2.1-0.3,3.9-1.8,4.7-3.8l0.3-0.8L-25.5-44.8z"/>
			<path id="Path_1417" class="st3" d="M-27.8-54.1c0,0-3.5,1.3-2.9,4.9l-0.6,1.7l-0.5,0.7c-0.1,0.2-0.2,0.3-0.2,0.5v0.3
				c0,0.4,0.3,0.7,0.7,0.7c0,0,0,0,0,0h0.9v2c0,1.3,1,2.3,2.3,2.3h2c2.2,0,4.2-1.2,5.2-3.1l1.2-2.1l-1.1-8
				C-20.9-54.1-25.2-55.7-27.8-54.1z"/>
			<path id="Path_1418" class="st23" d="M-20.9-54.1c0,0-0.1,0-0.2-0.1c-0.1,0-0.2,0-0.2,0c0,0-0.1,0-0.1-0.1
				c-1.2-0.3-4.4-1-6.4,0.2c-1.1,0.4-2,1.2-2.5,2.2c0.4,0,0.7,0,1.1-0.1c0.6-0.1,2.4-0.7,2.9-0.1c0.3,0.3-0.2,0.9-0.2,1.2
				c-0.1,0.6,0.3,1.2,0.3,1.7c0.2,1,0.4,1,0.4,2.1l0.7,0c0.1-0.6,0.1-0.3,0.5-0.8c0.4-0.5,0.9-0.7,1.5-0.6c0.7,0.2,1.3,0.9,1.3,1.7
				c0,1.9,1.4,1.9,1.5,1.9l0.8-1.3L-20.9-54.1z"/>
			<path id="Path_1419" class="st29" d="M-18.2-52.9c0.1-0.3,0.2-0.6,0.2-1c-0.1-0.6-0.5-1.1-1.1-1.2c-0.4-0.1-1,0.1-1.4,0
				c-0.4-0.1-0.4-0.5-0.6-0.8c-0.5-0.7-1.4-0.8-2.2-0.8c-1,0.1-2,0.2-2.9,0.4c-0.7,0.1-1.4,0.2-2.1,0.2c-0.7,0-1.3-0.1-1.9-0.2
				c-0.6-0.2-1.2-0.6-1.4-1.2c-0.4,1.1-0.4,2.2,0,3.3c0.6,1.4,1.8,1.6,3.2,1.4c0.6-0.1,2.4-0.7,2.9-0.1c0.3,0.3-0.2,0.9-0.2,1.2
				c-0.1,0.5-0.1,1.1,0,1.6c0.2,1,0.4,2,0.5,3l0.7,0c0.1-0.6,0.3-1.1,0.6-1.6c0.4-0.5,0.9-0.7,1.5-0.6c0.5,0.2,0.9,0.6,1,1.1
				c0.1,0.5,0.1,1,0,1.5c-0.1,0.4-0.1,0.8,0.1,1.2c0.3,0.6,1,0.8,1.7,0.9c0.1,0,0.3,0,0.4,0c0.3-0.1,0.4-0.4,0.4-0.7
				c0.3-1.4,0.8-3,0.8-4.4C-18.1-50.7-18.5-51.8-18.2-52.9z"/>
			<g id="Group_65" transform="translate(11.89)">
				<path id="Path_1420" class="st13" d="M-30.1-52.9c0.1-0.3,0.2-0.6,0.2-1c-0.1-0.6-0.5-1.1-1.1-1.2c-0.4-0.1-1,0.1-1.4,0
					c-0.4-0.1-0.4-0.5-0.6-0.8c-0.5-0.7-1.4-0.8-2.2-0.8c-1,0.1-2,0.2-2.9,0.4c-0.7,0.1-1.4,0.2-2.1,0.2c-0.7,0-1.3-0.1-1.9-0.2
					c-0.6-0.2-1.2-0.6-1.4-1.2c-0.1,0.5-0.2,1-0.3,1.5c0.3,0.5,0.8,0.8,1.3,1c0.6,0.2,1.3,0.3,1.9,0.2c0.7,0,1.4-0.1,2.1-0.2
					c1-0.2,1.9-0.4,2.9-0.4c0.8,0,1.7,0,2.2,0.8c0.2,0.3,0.2,0.6,0.6,0.8c0.4,0.1,1-0.1,1.4,0c0.6,0.1,1,0.6,1.1,1.2
					c0,0.3-0.1,0.7-0.2,1c-0.3,1,0.1,2.2,0.1,3.2c-0.1,1.3-0.3,2.6-0.6,3.8c0.1-0.2,0.2-0.4,0.3-0.6c0.3-1.4,0.8-3,0.8-4.4
					C-30-50.7-30.4-51.8-30.1-52.9z"/>
			</g>
			<path id="Path_1421" class="st4" d="M-19.4-43.5l1.5,1.9l2,1.4c2.9,2.3,3.4,3.1,3.9,6.8c0,0,0.6,2.4,0.6,2.5
				c0.2,0.9,0.2,1.7,0.1,2.6l-1,5.9c-0.5,3.2-0.4,6.4,0.3,9.5l0.9,6.3c-3.2,4.2-9.4,0.1-17.5,2.4l1.3-14.1l-0.3-11.1
				c0-0.3,0-0.7,0.1-1l1.9-8.9L-19.4-43.5z"/>
			<path id="Path_1422" class="st23" d="M-12-12.9c-0.8-3.1-0.9-6.4-0.3-9.5l1-5.9c0.1-0.9,0.1-1.8-0.1-2.6c0,0-0.6-2.4-0.6-2.5
				c-0.5-3.7-1-4.5-3.9-6.8l-2-1.4l-1.5-1.9l-0.7,0.5l1.4,1.8l2,1.4c2.9,2.3,3.4,3.1,3.9,6.8c0,0,0.6,2.4,0.6,2.5
				c0.2,0.9,0.2,1.7,0.1,2.6l-1,5.9c-0.5,3.2-0.4,6.4,0.3,9.5l0.9,6.3c-0.3,0.5-0.8,0.8-1.2,1.1c0.8-0.3,1.5-0.8,2.1-1.6L-12-12.9z"
				/>
			<path id="Path_1423" class="st3" d="M-24.1-24.3l-0.6,3L-34.8-9.1l-1.7-0.3c-0.5-0.1-0.9,0.1-1.3,0.5l-1.1,1.2v1.1l0.8,0.9
				l1.5-1.5l1.8,0.4l0.3,1.1l-0.2,0.9h0.5l1.1-1.6l0.8-0.9l7.9-6.7l5.3-4.2l1.3-6.7L-24.1-24.3z"/>
			<g id="Group_66" transform="translate(7.31 56.098)" class="st30">
				<path id="Path_1424" class="st29" d="M-26.5-80.8l-1,5.3l-5.3,4.2l-7.6,7.3l-1.2,2.2l-0.2,0.9h0.5l1.1-1.6l0.8-0.9l7.9-6.7
					l5.3-4.2L-25-81L-26.5-80.8z"/>
			</g>
			<path id="Path_1425" class="st4" d="M-22.9-36.2l-1.8,11.9h7.6l2.3-8.6l-0.4-3.3L-22.9-36.2z"/>
			<path id="Path_1426" class="st23" d="M-17.4-30.6l-1.7,6.3h2l2.6-8.6l0,0C-15.9-32.9-17.1-32-17.4-30.6z"/>
		</g>
	</g>
</g>
</svg>
