<svg xmlns="http://www.w3.org/2000/svg" width="40.676" height="56.946" viewBox="0 0 40.676 56.946"><defs><style>.a{fill:#ff1744;}</style></defs><g transform="translate(8 41.546)"><g transform="translate(-8 -41.546)"><path class="a" d="M43.676,9.135V5.068H30.346a8.072,8.072,0,0,0-14.017,0H3V9.135H15.2a8.072,8.072,0,0,0,1.314,4.409A12.185,12.185,0,0,0,7.068,25.406V45.743a4.069,4.069,0,0,0,4.068,4.068H15.2V41.676a8.135,8.135,0,0,1,16.27,0v8.135h4.068a4.069,4.069,0,0,0,4.068-4.068V25.406a12.185,12.185,0,0,0-9.449-11.861,8.072,8.072,0,0,0,1.314-4.409ZM23.338,5.068A4.068,4.068,0,1,1,19.27,9.135,4.074,4.074,0,0,1,23.338,5.068Z" transform="translate(-3 -1)"/><path class="a" d="M11.068,10A4.08,4.08,0,0,0,7,14.068v12.2a4.068,4.068,0,0,0,8.135,0v-12.2A4.08,4.08,0,0,0,11.068,10Z" transform="translate(9.27 26.608)"/></g></g></svg>