<svg xmlns="http://www.w3.org/2000/svg" viewBox="0 0 155 60"><style><![CDATA[.H{fill:#a47a35}.I{fill:#c19b58}.J{fill:#694409}.K{fill:#dcbc7e}]]></style><path d="M140.2 50H14.7c-2.6 0-4.7-2.1-4.7-4.7V14.7c0-2.6 2.1-4.7 4.7-4.7h125.5c2.6 0 4.8 2.1 4.8 4.7v30.5c0 2.7-2.2 4.8-4.8 4.8z" fill="#a6a6a6"/><path d="M144 45.3a3.8 3.8 0 0 1-3.8 3.8H14.7a3.8 3.8 0 0 1-3.8-3.8V14.7a3.8 3.8 0 0 1 3.8-3.8h125.5a3.8 3.8 0 0 1 3.8 3.8v30.6z"/><g fill="#fff"><path d="M79.7 22v11.7c0 .7.4 1.7.9 2.3.1.1.1.2.2.3s.1.2.2.3c.4.3.8.6 1.2.8.5.2 1.1.4 1.7.4h4.5c.7 0 1.1-.3 1.5-.6 1-.8 1.1-2.7-.5-3.6-.9-.5-4.4 0-5-.3a.78.78 0 0 1-.4-.4c-.1-.3 0-8.3 0-9 0-1.4.2-2.7-1-3.5s-2.7-.2-3.2.8c0 .2-.1.5-.1.8zM66.4 37.5c0 .8.2 1.4.8 1.9.4.4 1 .5 1.8.5h3.7c2.9 0 4.8-1.9 4.8-4.8v-5.9c0-.9-.2-1.3-.6-1.8-.7-.9-2.3-1.1-3.2-.1-.7.7-.7 1.2-.7 2.1v4.9c0 1-.2 1.3-1.2 1.2h-2.5c-1 0-1.4-.1-2.1.4-.3.4-.8 1-.8 1.6zm-13.3-4.4c0 1 .3 1.8 1.2 2.2.3.1.5.2.9.2H60c2.1 0 4.2-2 4.2-4.5v-6.5c0-.7-.3-1.2-.6-1.6-1-1-2.5-.9-3.3.1-.5.6-.5.8-.5 1.9v4.9c0 .5 0 .7-.2 1-.3.3-.5.2-1 .2h-2.5c-1.2 0-2 .1-2.6 1.1-.2.3-.4.6-.4 1zm13.3-13.2v11.4c0 1.8 2.5 2.9 3.8 1.3.4-.4.6-.9.6-1.8V20.2c0-.7-.2-1.3-.6-1.6-1.4-1.6-3.8-.4-3.8 1.3zm11 19.9c0 1.4.9 2.3 2.3 2.3 2.4 0 2.9-3.3.9-4.2-1.7-.7-3.2.6-3.2 1.9zM73 22.1c0 .7.1 1.2.6 1.7 1.3 1.3 3.8.5 3.8-1.6 0-1.2-1.1-2.2-2.2-2.2S73 21 73 22.1z" fill-rule="evenodd"/><path d="M97.1 34.3c.6 0 1-.1 1.3-.3s.4-.6.4-1v-3h1v2.7c0 .4-.1.7-.2 1s-.3.6-.5.8-.4.4-.7.5-.6.2-1 .2h-.7l-.2-.9h.6zm1.4-5.9c0-.2.1-.4.2-.5s.3-.2.5-.2.4.1.5.2.2.3.2.5-.1.4-.2.5-.3.2-.5.2-.4-.1-.5-.2c-.1-.2-.2-.3-.2-.5zm2.6 4.5v-5.8h.9v5.8h-.9zm12.4 0c-.2 0-.5 0-.7-.1s-.4-.1-.6-.3c-.2.2-.5.3-.9.3h-4.8c-.4 0-.8-.1-1-.4s-.3-.6-.3-1.1V30h.9v1.2c0 .3.1.4.2.5s.3.1.5.1h4.3c.2 0 .4-.1.5-.2s.1-.3.1-.5V30h.9v1.3c0 .2.1.4.2.5s.3.1.5.1h.1l.1 1zm-6.1-4.2c0-.2.1-.3.2-.4s.2-.2.4-.2.3.1.4.2.2.2.2.4-.1.3-.2.4-.2.2-.4.2-.3-.1-.4-.2-.2-.2-.2-.4zm1.7 0c0-.2.1-.3.2-.4s.2-.2.4-.2a.9.9 0 0 1 .6.6c0 .2-.1.3-.2.4s-.2.2-.4.2-.3-.1-.4-.2c-.2-.1-.2-.2-.2-.4z"/><path d="M113.3 32.1c0-.1 0-.1 0 0 .2-.1.2-.1.3-.1h2.5c.3 0 .5-.1.6-.2s.1-.3.1-.4h-1.2c-.4 0-.7-.2-.9-.4a1.69 1.69 0 0 1-.3-1c0-.2 0-.4.1-.6s.2-.3.3-.5c.1-.1.3-.2.5-.3s.4-.1.6-.1c.3 0 .5.1.7.2s.4.3.5.4l.3.6c.1.2.1.5.1.7v.6c0 .2 0 .5-.1.7s-.1.4-.3.6c-.1.2-.3.3-.4.4-.2.1-.4.2-.6.2h-2.8c-.1 0-.1 0-.1-.1l.1-.7zm1.9-4.8c0-.2.1-.4.2-.5s.3-.2.5-.2.4.1.5.2.2.3.2.5-.1.4-.2.5-.3.2-.5.2-.4-.1-.5-.2c-.2-.2-.2-.4-.2-.5zm1.6 3.2c0-.1 0-.3-.1-.4 0-.1-.1-.2-.2-.3s-.2-.2-.3-.2c-.1-.1-.2-.1-.4-.1-.3 0-.4.1-.5.2s-.2.2-.2.4.1.3.2.3c.1.1.3.1.4.1h1.1zm4.1 1.5v.9h-.3c-.5 0-.8-.1-1.1-.4-.3-.2-.4-.6-.4-1.1v-4.3h.9v4.2c0 .3.1.5.2.6s.3.1.5.1h.2z"/><path d="M120.4 34.5c0-.2.1-.3.2-.4s.2-.2.4-.2.3.1.4.2.2.2.2.4-.1.3-.2.4-.2.2-.4.2-.3-.1-.4-.2c-.2-.1-.2-.3-.2-.4zm.2-2.4c0-.1 0-.1 0 0 .2-.1.2-.1.3-.1h1.2c.2 0 .3 0 .4-.1.1 0 .2-.1.2-.1 0-.1.1-.1.1-.2V30h.9v1.4c0 .4-.1.8-.3 1.1s-.6.4-1 .4h-1.7c-.1 0-.1 0-.1-.1v-.7zm1.3 2.4c0-.2.1-.3.2-.4s.2-.2.4-.2.3.1.4.2.2.2.2.4-.1.3-.2.4-.2.2-.4.2-.3-.1-.4-.2-.2-.2-.2-.4zm3.5-.6c.3-.2.4-.6.4-1V30h1v2.7c0 .4-.1.7-.2 1s-.3.6-.5.8-.4.4-.7.5-.6.2-1 .2h-.4l-.2-.9h.2c.7 0 1.1-.1 1.4-.4zm2.6-1l-.1-.9h3c.1 0 .3 0 .3-.1.1-.1.1-.1.1-.2s-.1-.2-.2-.3l-2.1-2.2.6-.6 2 2.2c.2.2.3.3.3.5.1.2.1.4.1.5 0 .3-.1.6-.3.8s-.6.3-1 .3H128z"/></g><path d="M40.9 41c0 .1-.1.1-.1.2h-.5c-.1 0-.2 0-.2.1 0 .3-.3.3-.5.4-.3.1-.7.1-.9.5h-.1c-.5.1-1 .1-1.5.3.2 0 .4 0 .6.1-.6.1-1.2.1-1.8.1l-3.4.1c-.4 0-.9-.2-1.3-.2h-1c-.1 0-.3 0-.4-.1.3-.1.5-.1.8-.1-.4 0-.8-.2-1.3-.2-.3 0-.6 0-.8-.1-.3-.2-.7-.3-1-.5-.3-.1-.6-.2-.8-.5s-.5-.3-.8-.2l-.3-.3c.1-.1.2-.1.2-.2-.1-.2-.3-.2-.5-.1-.1-.2-.2-.3-.2-.5h.3c-.1-.1-.2-.1-.3 0-.1-.1-.2-.2-.2-.3h.2c.2 0 .2 0 .1-.1s-.2 0-.3 0L23.5 36h.2c.1 0 .2 0 .2-.1 0-.2-.1-.2-.2-.2h-.3c-.2-.6-.4-1.1-.5-1.7.1 0 .4 0 .4-.1 0-.2-.3-.1-.4-.1-.6-2.1-1.1-4.3-1.4-6.4-.1-.7-.2-1.3-.1-2 .1-.5.4-.9.8-1.2.9-.8 2-1.1 3.1-1.4 1-.3 2.1-.5 3.1-.7h.4c.3 0 .4-.1.5-.4.5-1.4 1.1-2.7 1.9-3.9.5-.7 1-1.4 1.8-1.8.7-.4 1.5-.3 2.2.2 1.1.8 1.6 2 2.2 3.1.4.8.7 1.7 1 2.5.1.2.2.2.4.2l2.5.4c1.2.3 2.4.6 3.5 1.3.4.3.8.5 1.1 1 .2.4.3.8.3 1.2.1 1.4-.3 2.8-.6 4.1-.1.5-.2 1.1-.4 1.5-.1 0 0 .1 0 .1 0 .1-.1.3-.1.4-.1 0-.2-.1-.3 0 0 .1.2 0 .2.1s0 .2-.1.3-.1.3-.3.3c-.1 0-.2 0-.2.1s.1.1.2.1h.2v.1c-.1.2-.2.4-.5.4.2.1.3 0 .4.1v.1c-.1 0-.3 0-.4.1.1.1.3 0 .3.1s0 .1-.1.2c-.1 0-.1.1-.1.1 0 .1 0 .2-.1.3-.1-.1-.1-.2-.2-.1s0 .2.1.2v.1c0 .1 0 .2-.1.2s-.1.1 0 .1c0 .1-.1.2-.1.3-.1 0-.1.1 0 .1 0 0-.1 0 0 .1v.1c-.1.2-.1.4-.2.6 0 0-.1 0 0 .1v.2s-.1 0 0 .1c0 .2-.1.3-.2.4-.2-.2-.2-.2-.4.1.1.1.3 0 .3.1h-.3c-.1 0-.1 0-.2.1 0 .1.1.1.2.1.1.1.1-.1.2-.1v.2L40.9 41s-.1-.1-.2 0h.2zM33 18.9c-.2.1-.4 0-.6.1h.4c0 .1-.2.2-.2.3-.3-.2-.4 0-.6.2.1.1.2 0 .4.1l-.2.2c-.2-.2-.4-.1-.5.2h.3l-.3.3c-.1-.3-.2-.1-.3 0h.3l-.6 1.1c-.1-.1-.2-.2-.3-.1-.1 0-.1.2-.1.2 0 .2.2.1.3.1 0 .1-.2.2.1.2.7-.1 1.4 0 2.1-.1.8-.1 1.6.1 2.5.1.1 0 .2 0 .3.1s.3.1.4 0 0-.3-.1-.4l-.9-1.6c.1 0 .2.1.2 0 0-.2 0-.4-.2-.6-.2-.1-.3-.1-.5.1-.2-.1-.3-.3-.5-.4h.4c-.4-.2-.6-.4-1-.5-.4 0-.8 0-1.2.3.2 0 .3 0 .4.1zm-4.2 8.9c-.1 0-.1.1-.1.1-.1.3-.1.5-.2.8-.1.1-.2.2-.4.2s-.5-.2-.4-.3c.1-.4.1-.9.3-1.2.1-.2 0-.4-.3-.4h-.1v-.1c.1 0 .2 0 .3-.1.2 0 .2-.1.2-.2 0-.2-.1-.2-.2-.2-.7 0-1.4.3-2.2.3-.6.1-1.3.3-1.9.3-.5 0-1 .2-1.4 0 0 0-.1 0-.1.1s0 .1.1.1h.5c-.1.2-.3.1-.4.1-.2 0-.4.2-.4.4s.1.4.4.3h.4c-.1.1-.2.1-.3.1s-.3 0-.3.2-.1.4.1.5c.1 0 .1 0 .1.1-.2.5 0 1 .1 1.5 0 .1.1.3.1.4.1.4.1.8.3 1.1.2.5.1 1.1.5 1.5v.1c-.1.2.1.5.1.7 0 .1.1.2.1.3.1.5.4.9.4 1.4l.1.1c.1.1.1.2.1.3 0 .2.1.4.2.4.2.1.2.3.2.5 0 .4.3.6.4.9.1.4.3.7.5 1 .3.3.5.6.9.6.1 0 .1 0 .2.1h-.1c-.2 0-.3 0-.2.2 0 .2.1.2.3.2h2.1v.1c-.1.1-.2 0-.3 0h-1.1c-.1 0-.2 0-.2.1s-.1.2-.1.3c.5.5 1.2.3 1.9.4l-.1.1c-.1 0-.2 0-.2.1s.1.1.2.2c.2.1.4 0 .6.1.2 0 .5 0 .8.1-.1 0-.1 0-.2.1-.2 0-.2.1 0 .1.3 0 .6.2.9.2h1.7c0 .1-.2.1-.2.2.6.1 1.1.1 1.7 0 .2 0 .4-.2.6-.2.8-.1 1.6 0 2.4-.1.1 0 .2 0 .3-.1 0-.1-.2 0-.2-.1.4-.1.7-.1 1.1-.1.3 0 .5-.1.7-.2 0 0 .1 0 .1-.1 0-.2 0-.2.2-.2.3 0 .5-.1.8-.3.1-.1.2-.2.2-.3.3-.3.4-.6.6-.9.3-.3.5-.7.6-1.1l.3-.8v-.1c.1-.2 0-.2-.2-.2-.3 0-.7.1-1 0h1.1c.2 0 .2-.2.3-.3s-.1 0-.1-.1c.5-.3.5-.7.2-.9.6 0 .7-.1.7-.7 0-.1.1-.2.2-.3.3-.3.3-.6-.1-.7.4.1.5-.1.6-.4 0-.2.1-.3-.1-.4.2 0 .3-.1.4-.3.1-.3.1-.7.3-1 0-.1.2-.2.1-.3s-.1-.1 0-.2c.2-.1.2-.4.1-.5l-.1-.1c.3-.2.5-.5.5-.8s0-.5.2-.7c.1-.1.1-.3.1-.5 0-.1 0-.2.1-.4.2-.2.1-.6-.1-.8.3 0 .3-.3.2-.4-.1-.2-.2 0-.3 0h-.2c-.5.1-1 .1-1.5.1-.1 0-.1 0-.2-.1h1c.3 0 .4-.2.6-.3.1 0 0-.1 0-.1-.3 0-.5-.2-.8-.2-.5 0-1.1-.1-1.6-.2-.6-.2-1.2-.2-1.8-.4-.3 0-.5-.1-.8-.1-.1 0-.2 0-.3.2 0 .1 0 .2.1.3.1 0 .1.1 0 .2-.1.2.1.5.3.7v.6c.1.3.1.5-.2.7h-.3c-.3-.2-.3-.6-.4-.9l-.5-1.4c0-.1-.1-.2-.1-.3 0-.2-.3-.2-.5-.2h-.1c0-.1-.1-.1-.1-.1-.5-.1-1 0-1.6 0h-.1c-.7-.2-1-.2-1.2-.2h-.2c-.2-.2-.4-.1-.6-.2-.5-.1-1-.1-1.5.1h-.2l-.1-.1c-.7.1-1.3 0-2 0-.2 0-.5.1-.7.1-.1 0-.3.1-.3.2s-.1.2-.1.3l-.2 1.4zm2.9-9.8c-.2-.1-.3-.1-.4 0s-.2.2-.2.3.2.1.3.1c0 .1 0 .1-.1.2-.6 1-1 2-1.5 3.1 0 .1-.1.2 0 .2s.2 0 .3-.1l.1-.1c.1-.4.4-.7.6-1.1.4-.7.8-1.4 1.4-2 .6-.5 1.2-.9 2.1-.6.6.2 1 .6 1.4 1.1.6.8 1.1 1.7 1.5 2.6 0 .1.1.2.1.2.1 0 .1.1.2 0s0-.1 0-.2c-.1-.2-.2-.5-.3-.7l-.6-1.5c.1 0 .4 0 .3-.2 0-.1-.2-.1-.4-.1h-.1c-.5-.9-1-1.9-1.8-2.6.1 0 .2 0 .2-.1-.1-.2-.1-.4-.4-.4-.5-.1-1 0-1.5 0 .5.2.1.2 0 .3-.2.1-.4.1-.5.4-.1.2 0 .2.1.2l-.1.1c-.1-.1-.2 0-.3 0s-.1 0-.1.1.1.1.1.1l.1.1s0 .1-.1.1c-.1-.2-.2-.1-.4 0 .1.1.1.2.3.2-.2 0-.2.2-.3.3zm-8.3 6.1v.1h1.7l-.2.2c-.1 0-.1.1-.1.1 0 .1.1.1.1.1.5 0 .9-.2 1.3-.3-.3-.3-.6-.3-1-.3.4-.1.8-.1 1.2-.2-1-.2-2.1-.3-3 .3zm7.3-.8c.6.2 1.2.1 1.8.1.1 0 .1-.1.1-.2 0-.2.1-.3.3-.3h.5c.1 0 .2-.1.2-.2s0-.1-.1-.1c-.2 0-.3-.1-.5.1s-.6.2-.8.2c-.4 0-.9 0-1.3.1-.1 0 0 .3-.2.3zm-7.8 1.3c0 .1 0 .1-.1.1-.1.1-.1.2-.1.3s.2 0 .3 0c.4 0 .8-.1 1.1-.1h.4c.2-.1-.1-.2 0-.3.1-.2 0-.2-.2-.2h-1.1c-.3 0-.4.1-.6.2.1 0 .3-.1.3 0zm20.7-.4c-.2-.2-.4-.3-.6-.3-.7-.2-1.3.1-2 .1-.2 0-.4.1-.3.3s.2.3.5.2c.4-.2.9-.1 1.3-.2.3-.1.7-.1 1.1-.1zm-18.8 2.3l2-.3c.7-.1 1.4-.4 2-.1.1 0 .2 0 .2-.1s-.1-.1-.2-.1h-1.5c-.3 0-.6 0-.8.1-.4.1-.8.2-1.2.2-.2 0-.5 0-.7.1 0 .1.3 0 .2.2zm18.4-1.8h.3c.1 0 .2.1.2-.1 0-.1-.1-.2-.2-.2h-.7c-.2 0-.4-.2-.4.2 0 .1-.1.1-.2.1s-.2.1-.3.1v.1h1.8c-.3-.2-.4-.1-.5-.2zm-9.3.9c-1.4-.2-2.8.1-4.2.1l4.2-.1zm1.4-2.6c-.3 0-.5 0-.8.1-.1 0-.2 0-.1.2l.2.2c.4.1.8 0 1.2 0 .2 0 0-.2.1-.4.1-.1-.1-.1-.2-.1h-.4zm3.1 3c1 .2 2 .4 3 .4-.9-.5-2-.3-3-.4zm-2.7-.3c.8 0 1.5.2 2.3.1-.8-.1-1.6-.2-2.3-.1zm2.7-3.3h-1.5c-.1 0-.2 0-.2.1s.1.1.2.1l1.5-.2zm5.6 1.8l.9.6c-.2-.3-.4-.7-.9-.6zm-4.7.5c-.3-.2-.6-.1-1-.1.4 0 .7.2 1 .1zm-15.5 2h-1.6 1.6zm-.2-3c-.2 0-.4.1-.5.1 0 0-.1 0-.1.1s.1.1.1.1c.2 0 .4 0 .5-.3zm21.1 7.4c.1 0 .2-.1.2-.2s-.1-.1-.1-.1c-.1 0-.2 0-.2.2 0 .1 0 .1.1.1zm-16.2-6h-.6c.2.1.4.1.6 0zm8.5-3.3c-.2 0-.4-.1-.5.1.1 0 .3 0 .5-.1zm-8.2 3.8c.2.1.4.1.5 0-.1-.1-.3-.1-.5 0zm16.7 1.3c0 .1 0 .1 0 0 .1.1.2.1.2 0h-.2zm-23.1 4.5c-.1-.1-.2-.1-.3 0 .1.1.2.1.3 0zm-1-3.4c.1 0 .2.1.3 0-.1-.1-.1-.1-.3 0z" class="J"/><g class="H"><path d="M37.6 42.6c-.2-.1-.4-.1-.6-.1.5-.2 1-.2 1.5-.3h.1c.2-.4.6-.4.9-.5.2-.1.5-.1.5-.4 0-.1.1-.1.2-.1h.5c-.3.5-.7.7-1.2.9-1.2.5-2.4.8-3.6.9-.3 0-.6-.1-.9.1-.3-.1-.6-.1-.9-.1v.1c-.3.2-.6.1-.9.1-.2 0-.4.1-.6-.1.1-.1 0-.1-.1-.1h-.9c-2.1-.1-4-.6-5.7-1.7l-.3-.3c.3-.1.6-.1.8.2s.5.3.8.5.7.3 1 .5c.3.1.6.1.8.1.4 0 .8.2 1.3.2-.3 0-.5 0-.8.1.1 0 .3.1.4.1h1c.5 0 .9.2 1.3.2l3.4-.1 2-.2zm-14.3-6.7c.1 0 .2-.1.3 0 .1 0 .2 0 .2.2s-.1.1-.2.1h-.2c-.1-.1-.1-.2-.1-.3zm19.4 1.8c-.1-.1-.2-.1-.3-.1.2-.4.3-.4.4-.1 0 0 0 .1-.1.2zm1.7-4.5h-.2c-.1 0-.2 0-.2-.1s.1-.1.2-.1c.2 0 .2-.2.3-.3 0 .1 0 .3-.1.5z"/><path d="M42.5 38.1v-.2c-.1 0-.1.1-.2.1s-.2 0-.2-.1.1-.1.2-.1h.3c.1.1 0 .2-.1.3zm-17.3 2.2c.2-.1.3 0 .5.1-.1.1-.2.1-.2.2-.2 0-.3-.1-.3-.3zm19-6.5c-.1-.1-.2 0-.4-.1.3 0 .5-.2.5-.4 0 .1 0 .3-.1.5zm-21.5.2c.2 0 .4-.1.4.1 0 .1-.2 0-.4.1V34z"/></g><path d="M31.7 43c.3-.1.6 0 .9 0 .1 0 .2 0 .1.1H32c-.2 0-.3 0-.3-.1z" class="J"/><path d="M44.1 34.1c-.1-.1-.2 0-.3-.1.1-.1.3-.1.4-.1-.1.1-.1.1-.1.2zm-.4.9c-.1-.2-.2-.2-.1-.3s.2 0 .2.1c.1 0 0 .1-.1.2z" class="H"/><path d="M34.2 43.1c.3-.1.6-.2.9 0h-.9z" class="J"/><path d="M24.7 39.5c.1-.1.2-.1.4 0 .1.1 0 .1-.1.1s-.2 0-.3-.1c.1.1.1.1 0 0 0 .1 0 0 0 0zm19.9-7.1c0-.1-.2 0-.2-.1.1-.1.2 0 .2.1zm.2-.6v-.1c.1 0 0 .1 0 .1zm-1.3 4zm.1-.5zM40.9 41h-.2.2zm3-6.6c0-.1 0-.1 0 0zm-.8 2.4c-.1 0 0 0 0 0zm-.1.2s0-.1 0 0c0-.1 0 0 0 0zm.1-.3s0-.1 0 0zm.3-.6c-.1-.1 0-.1 0 0 0-.1 0-.1 0 0zm-15.7-9.2c-.4-.1-.7.3-1.1.4-.1 0-.1.1-.1.2s.1.1.1.1c.2 0 .3.1.4.1.2 0 .4.1.6-.1.3-.3.3-.5.1-.7.3.1.5.2.3.5-.3.4-.2.8-.3 1.2 0 .1.2.3.4.3s.3-.1.4-.2c-.1.3-.6.4-.8.1-.2-.2-.3-.2-.6-.2-.1 0-.3.1-.4-.1.1-.1.3 0 .4 0 .4 0 .5-.2.5-.6 0-.2-.1-.2-.2-.2h-.5c-.2 0-.4.1-.6 0 .1-.1.2 0 .2-.2-.6-.1-1.1 0-1.7.1-.1 0-.1.2-.1.2 0 .1.1.1.2.1.5-.1 1.1.1 1.6 0 0 0 .1 0 .1.1-.1.1-.2 0-.4 0-.3.1-.6-.2-.8.2h-.1c-.1 0-.3.1-.4.1-.3.1-.6.4-1 .3-.1 0-.3 0-.5.1.3 0 .7.1 1 .1s.5-.1.8-.1c.4-.1.9 0 1.4 0 0 .1-.1.1-.1.2 0 .3-.2.3-.4.2h-.7c-.3 0-.4.3-.7.3 0 .2-.2.2-.3.2H23c0 .3-.3.5-.1.8v.1c-.1.4-.1.4.3.4H25c-.2.2-.4 0-.5.1-.4.1-.8 0-1.2.1-.2.1-.2.2-.3.3 0 .1.1.2.2.3h1.7c0 .3-.1.3-.3.3-.2-.1-.3 0-.5.1-.3.1-.3.1 0 .3h-.5c-.1 0-.2 0-.2.1s.1.2.2.2h1.3s.1 0 .1.1c-.1 0-.1.1-.2.1.1.1.2 0 .3.1-.2 0-.3 0-.4.2-.1-.1 0-.2-.1-.3 0 .4-.3.2-.5.3-.1 0-.4-.1-.3.2 0 .2.1.1.2.2.3.1.6 0 1 .1.1 0 .2 0 .2.1-.1 0-.1.1-.2.1s-.1.1-.1.2.1.1.2.1c.3 0 .7.1 1 .1h1c-.5.2-1.1.2-1.7.4-.1 0-.2.1-.1.1s.2.2.3.2c.5.1.8-.3 1.3-.2 0-.3.2-.1.3-.2h1.7c-.1 0-.2.1-.3.1-.4 0-.9.1-1.3 0-.1 0-.2 0-.2.1 0 .3-.2.3-.4.3-.1 0-.2 0-.2.1s.1.2.2.2c.5 0 1.1.1 1.6 0 .2 0 .4-.1.6.2-.1 0-.1 0-.2.1-.1 0-.2.1-.2.2s0 .1-.1.1-.1-.1-.1-.1c0-.1-.1-.1-.1 0-.5.2-1.1.1-1.5.3-.1 0-.2 0-.2.1s0 .2.1.2c.4 0 .8.1 1.1 0 .4-.1.8 0 1.2-.1h.1c0 .1 0 .1-.1.1-.2.1-.4.1-.5.4 0 .1-.1.1-.2 0-.3-.1-.6 0-.9 0-.1 0-.3 0-.4.2.4-.1.7.1 1 0s.6-.1.8-.2c.3-.1.6-.1.9-.1s.6-.1.9 0l-.1.1c-.2 0 0 .3-.2.3s-.5.1-.7-.1c-.1-.1-.2-.1-.3.1 0 .1 0 .3-.2.3s-.3.1-.5.1-.2.1-.1.2c-.7 0-1.4-.2-2 .3 0 .1.1.2.2.2h.6c.5 0 .9.1 1.4-.1.1 0 .3-.1.5.1-.3 0-.5.2-.7.2-.3-.1-.4.1-.6.1s-.4.1-.6.1-.4.1-.6.1v.1h.4c-.1.3.2.2.3.2h.8c.3.1.5-.4.8-.3-.1-.2.1-.1.1-.1.2.1.4 0 .6 0 .1 0 .1 0 .2.1h-.3c-.1 0-.2 0-.2.2 0 .1.1.2.2.2h.5c-.3.1-.5 0-.8.1.5.1.9.1 1.4.1-.2 0 0 .3-.3.3-.5 0-.9 0-1.4.2 0-.1-.1-.1-.2-.1H27s-.1 0-.1.1c.1.1.2 0 .2 0h1.5c-.1.2 0 .2.2.2h1.6c.1 0 .2 0 .1.1-.2.2 0 .2.1.2s.2 0 .3.1h-.4v.1h2.1c0 .1-.1.1-.1.2h.5-.6c.3.1.5.2.8.2.1 0 .2.1.3 0 .2-.2.4-.4.8-.4 0 0 .1 0 .2-.1-.1 0-.2 0-.4-.1.4 0 .7-.1 1-.1-.8-.3-1.6 0-2.3-.2.4 0 .8-.1 1.2-.1.1 0 .2 0 .2-.1-.1-.3.1-.2.2-.2.4-.1.8 0 1.1 0 .1 0 .3 0 .4-.1.2-.2.6-.1.8-.3.1 0 .1-.1.2-.1.7 0 1.4.1 2.1.2h.1c.2.2.4 0 .6-.1-.8-.3-1.7-.2-2.5-.3l2.4-.2c.1 0 .3.1.2-.1 0-.1.1-.2.1-.3s-.1-.1-.1-.1c-.3 0-.7-.1-1 0-.1 0-.2 0-.2-.1s.1-.1.2-.1c.5 0 1 .1 1.5-.2 0-.1-.1 0-.2-.1h.3c-.5-.1-1-.1-1.4-.2-.1 0-.2 0-.2-.1 0-.2-.2-.2-.4-.3h.9c.2 0 .3-.3.6-.2 0 0 .1 0 0-.1l-.1-.1c-.3.1-.6-.3-.9-.1h-.1c0-.2-.2-.2-.4-.3.8.1 1.5 0 2.1-.2-.1-.1-.3 0-.5-.1.3-.1.5-.1.8-.1.1 0 .2 0 .2-.1 0-.2.1-.3.3-.4-.4-.1-.8 0-1.2.1-.2 0-.3.1-.3.3 0-.3-.1-.3-.3-.3-.4.1-.8 0-1.1-.1.6-.1 1.2 0 1.8-.2.2 0 .4 0 .2-.3.5.1.9-.1 1.3-.4-.3-.4-.8-.2-1.1-.4h.6c.4.1.5-.3.9-.3 0-.3.3-.2.5-.2.1 0 .3 0 .3-.1.1-.3.3-.2.6-.3-.5 0-1 0-1.4.1s-.9 0-1.4 0c.3-.1.6 0 .9-.1.2-.1.1-.2 0-.3.4 0 .7 0 1.1-.1.1 0 .3 0 .2-.2 0-.1-.2-.2-.3-.2-.3.2-.6 0-1 .1s-.7-.1-1.1-.1c.4 0 .7-.1 1.1-.1h.2c0-.3.2-.2.3-.3 0-.1-.1 0-.1-.1.5-.1 1.1.2 1.6-.4-.6 0-1.2-.2-1.8-.1.1-.2.3-.2.4-.2.4.1.8-.1 1.2-.1.1 0 .1 0 .1-.1s.1-.2.2-.2l-1.8-.3c.6 0 1.1-.3 1.6-.4.1 0 .2 0 .2-.1s-.1-.1-.2-.1c-.6 0-1.2 0-1.7.1-.4.1-.7 0-1.1 0V30h.9c-.5-.1-.5-.1-.6-.3h.4c0-.2-.2-.3-.4-.2-.4.1-.9 0-1.2.3 0-.2-.1-.2-.3-.2-.3 0-.6 0-.8.1 0-.2-.2-.1-.3-.2.2-.1.4-.1.6 0 .3 0 .7 0 1-.1.2 0 .3-.1.3-.3 0-.1.1-.1.2-.1.4.1.8 0 1.2-.1.1 0 .1 0 .1-.1-.1-.3.1-.3.3-.3.3 0 .6 0 .9-.1.1 0 .1 0 .1-.1s0-.1-.1-.1c-.3 0-.5-.1-.8 0-.6.2-1.2 0-1.9 0 .4-.1.8.1 1.1-.3 0-.1-.2 0-.2-.1.1-.1.3 0 .4-.1-.6-.1-1.1 0-1.6.1-.2 0-.5-.1-.6.3 0 .1-.1.2 0 .3s.1.2.3.2h.5v.1c-.4.1-.7.1-1.1.3.2-.2.2-.4.2-.7-.1-.2 0-.4 0-.6.4 0 .7 0 1.1-.1.1 0 .2 0 .2-.1s-.1-.1-.2-.2h.9c.1 0 .2 0 .2-.1s-.1-.2-.2-.2c-.3 0-.7-.1-1 0-.1 0-.2.1-.3.1-.2-.1-.4 0-.6 0-.1 0-.1.1-.1.2-.1.2.1.3.1.5-.2-.1-.3-.4-.3-.7 0-.1.1-.1 0-.2s-.1-.2-.1-.3.1-.2.3-.2c.3 0 .5.1.8.1.6.1 1.2.2 1.8.4.5.1 1.1.2 1.6.2.3 0 .5.2.8.2.1 0 .1.1 0 .1-.2.1-.3.3-.6.3h-1c0 .1.1.1.2.1.5 0 1 .1 1.5-.1h.2c.1 0 .2-.3.3 0 .1.2.1.4-.2.4.3.2.3.5.1.8-.1.1-.1.3-.1.4.1.2 0 .3-.1.5s-.2.5-.2.7c0 .3-.2.6-.5.8.2.1.2.4.1.5l-.1.1c-.1.1-.2.1 0 .2.1.1 0 .2-.1.3-.2.3-.2.7-.3 1-.1.2-.1.3-.4.3.3.1.2.3.1.4-.1.3-.2.5-.6.4.4.1.4.4.1.7-.1.1-.2.1-.2.3 0 .6-.1.7-.7.7.4.2.3.6-.2.9 0 .1.2 0 .1.1s-.1.3-.3.3h-1.1c.3.1.7 0 1 0 .2 0 .2.1.2.2v.1c-.1.2-.2.5-.3.8-.1.4-.3.8-.6 1.1s-.4.6-.6.9c-.1.1-.1.2-.2.3-.2.2-.5.3-.8.3-.2 0-.2 0-.2.2 0 .1-.1.1-.1.1-.2.1-.4.2-.7.2-.4 0-.7 0-1.1.1 0 .1.2 0 .2.1s-.2.1-.3.1c-.8.1-1.6.1-2.4.1-.2 0-.4.1-.6.2-.6.1-1.1.1-1.7 0 0-.1.2-.1.2-.2h-1.7c-.3 0-.6-.2-.9-.2-.1 0-.1-.1 0-.1 0 0 .1 0 .2-.1-.3-.1-.6-.1-.8-.1s-.4 0-.6-.1c-.1 0-.2-.1-.2-.2s.1-.1.2-.1c0 0 .1 0 .1-.1-.6-.1-1.3.1-1.9-.4 0 0 .2-.1.1-.3 0-.1.1-.1.2-.1h1.4v-.1h-2.1c-.2 0-.3.1-.3-.2 0-.2.1-.2.2-.2h.1c0-.1-.1-.1-.2-.1-.5 0-.7-.2-.9-.6-.2-.3-.4-.6-.5-1-.1-.3-.4-.6-.4-.9 0-.2 0-.4-.2-.5-.1-.1-.2-.2-.2-.4 0-.1 0-.2-.1-.3l-.1-.1c0-.5-.3-.9-.4-1.4 0-.1-.1-.2-.1-.3-.1-.2-.2-.4-.1-.7v-.1c-.4-.4-.3-1-.5-1.5-.2-.3-.2-.8-.3-1.1 0-.1-.1-.3-.1-.4-.1-.5-.3-1-.1-1.5 0-.1 0-.1-.1-.1-.2-.1-.2-.3-.1-.5 0-.2.2-.2.3-.2s.2 0 .3-.1h-.4c-.3 0-.4-.1-.4-.3s.1-.4.4-.4c.1 0 .3.1.4-.1H22c-.1 0-.1 0-.1-.1s.1-.1.1-.1c.5.1 1 0 1.4 0 .7 0 1.3-.2 1.9-.3.7-.1 1.4-.3 2.2-.3.1 0 .2 0 .2.2 0 .1 0 .2-.2.2 0-.1 0-.2-.1-.2-.4 0-.7 0-1.1.2.8 0 1.1 0 1.4.1zm-4.5.4c.3.1.4.1.6.1.4 0 .8-.1 1.3 0 .1 0 .1 0 .1-.1s-.1-.1-.1-.1c-.4.1-.7-.1-1.1-.1-.3.1-.5.1-.8.2zm.2.8c.2-.1.1.2.3.2s.4.1.6 0 .5 0 .9 0c-.3-.2-.8.1-.8-.4-.2.4-.6 0-1 .2zm13.1 13.2c-.4-.1-1.7 0-1.9.1.6 0 1.3 0 1.9-.1zm-7.6-2.5h-2c.6.1 1.3.2 2 0zm11.4.7h-1.4v.1c.5 0 1 .1 1.4-.1zm-.4-12.8c-.2 0-.4-.2-.6-.2-.1 0-.1 0-.1.1v.1c.2.1.5.1.7 0zm-5.7 15.1h-1.4 1.4zm1.2-1.7c.1 0 0-.1 0 0 0-.1-.1 0 0 0zm3.3-.5c0-.1 0-.1 0 0z" class="H"/><g class="I"><path d="M39.1 28.9c.3-.2.7-.2 1.1-.3v-.1h-.5c-.1 0-.2 0-.3-.2V28c.1-.4.4-.3.6-.3.5-.1 1.1-.2 1.6-.1-.1.1-.3 0-.4.1 0 .1.1.1.2.1-.3.3-.8.2-1.1.3.6 0 1.2.2 1.9 0 .2-.1.5 0 .8 0 .1 0 .1 0 .1.1s-.1.1-.1.1c-.3.1-.6.1-.9.1-.2 0-.4 0-.3.3 0 .1 0 .1-.1.1-.4 0-.8.2-1.2.1 0 0-.2-.1-.2.1s-.2.3-.3.3c-.3.1-.7.1-1 .1-.2 0-.4-.1-.6 0-.1-.1-.1-.1 0-.2.1 0 .1 0 .1-.1s0-.2-.1-.2-.3 0-.3.2-.1.2-.2.2h-.4c-.2 0-.5-.1-.6.2h-.1c-.3-.1-.7.2-1 .1-.1 0-.1 0-.2.1 0 0 0 .1-.1 0s-.3-.1-.4-.1h-1c.2-.1.5-.2.7-.1.5.1.9-.2 1.3-.4-.3-.2-1.6-.2-1.8 0 0 0-.1 0-.1.1 0 .2-.2.2-.3.2-.4 0-.7 0-1.1.1-.2 0-.4 0-.4.3 0 .1-.1.1-.1.1h-.6c-.2 0-.3-.1-.5 0 0-.2-.2-.3-.3-.4.7 0 1.4 0 2-.1.1 0 .1.1.2-.1 0-.1 0-.1-.1-.2 0 0-.1 0-.1-.1.4-.1.9.2 1.1-.4h-1c-.1.2-.3.2-.4.2-.5 0-1 0-1.5-.1 0 0-.1 0-.1-.1.7.2 1.4-.2 2.1-.1 0-.2-.2-.1-.2-.2h.8c.3 0 .4-.1.2-.4.1-.1.2 0 .2-.1-.2 0-.3-.2-.5-.1s-.5.1-.7.1-.5 0-.5.4c-.1-.1 0-.3-.2-.3-.4.1-.8-.1-1.1 0-.1 0-.2 0-.2-.1s.1-.1.2-.1c.6.2 1.1-.2 1.7-.2v-.1c.6.1 1.3.1 1.9-.1.1 0 .1-.1.1-.1 0-.2.2-.2.3-.2.3 0 .6.1.9.1.4-.1.8-.1 1.2-.3.5-.3.7-.1.8.3 0 .2 0 .3-.2.3s-.4-.1-.5.1c.1 0 .2.1.3 0 .4-.1.6.1.7.4.1.2.1.3-.2.3h-1c.4.1.7.2 1.1.1.2 0 .4 0 .3.3 0 .2.2.4.4.4 0-.1.1-.1.2-.1zm-1.8 0c.3 0 .6 0 .9-.1.1-.1.1-.1.1-.2s0-.2-.2-.1h-.4c-.2 0-.5-.1-.7 0s-.5.1-.7.3c0 0-.2 0-.1.1 0 .1.1.1.2.1.3-.1.6-.2.9-.1zm-1.3-.7c-.4 0-.8-.1-1.1 0-.2 0-.4.2-.6.1-.1 0-.2 0-.2.1s.1.1.2.2c.6-.1 1.2-.1 1.7-.4zm-1.6-.5c.2.2 1.7.2 2 0h-2zm2.2-.5c.1 0 .1.1.2.1v-.1h-.2z"/><path d="M35.4 26.1c.2.2.4.1.5.1.4 0 .9.1 1.3 0h.1c0 .2.2.1.3.2-.3.1-.6 0-.9 0-.2 0-.5.1-.6.3-.1.1-.2.2-.3.2h-1.3c-.2 0-.1.1-.1.2-.1-.1-.3-.2-.4-.1-.1.2-.2.1-.4.2 0-.3.2-.3.4-.4-.4 0-.9-.1-1.3.1.2 0 .5-.1.5.2-.2 0-.4 0-.6.1-.1 0-.2 0-.3-.1-.1-.3.2-.3.3-.4h-1.9c.1 0 .2.2.3.1h.9c.2 0 .3.1.2.2-.4 0-.8-.1-1.2 0-.2.1-.3.1-.5.1-.1-.1-.2 0-.3-.1-.2 0-.5 0-.7-.1-.1 0-.2.1-.3-.1 0-.2 0-.3.2-.4s.5-.1.7-.1c.1 0 .2.1.3-.1h-.8c-.1 0-.2.1-.2-.1 0-.1.1-.1.2-.1.7 0 1.3 0 2-.1.2 0 .3 0 .5-.1h.2c.1.1.1.1.2.1.3-.1.6 0 .9 0s.6.1.9 0h.2c.5.3.7.2 1 .2zm-1.3.4h-1.3 1.3z"/></g><path d="M32.6 27.3c.2-.1.4 0 .6-.1h.4c.1 0 .3 0 .4-.2.1-.1.3 0 .4-.1-.1-.1-.1-.2.1-.2h1.3c.1 0 .2 0 .3-.2s.4-.2.6-.3h.9c-.1-.1-.3 0-.3-.2.2 0 .5-.1.5.2 0 .1.1.2.1.3.2.4.3.9.5 1.4.1.3.1.6.4.9-.2 0-.5-.3-.4-.4.1-.3-.1-.3-.3-.3-.4.1-.7 0-1.1-.1h1c.3 0 .3-.1.2-.3-.2-.3-.4-.5-.7-.4h-.3c.2-.1.4-.1.5-.1.2 0 .2 0 .2-.3-.1-.4-.3-.6-.8-.3-.4.2-.8.2-1.2.3-.3.1-.6-.1-.9-.1-.1 0-.2 0-.3.2 0 .1-.1.1-.1.1-.6.2-1.3.3-2 .2zm-9.2-3.2c.9-.6 2-.5 3-.3-.4 0-.8.1-1.2.2.4 0 .7 0 1 .3-.4.2-.8.3-1.3.3-.1 0-.1 0-.1-.1s0-.1.1-.1.1-.1.2-.2l-1.7-.1c0 .1 0 0 0 0zm7.3-.8c.2-.1.1-.3.3-.4.4-.1.9-.1 1.3-.1.2 0 .6 0 .8-.2.1-.2.3-.1.5-.1.1 0 .1.1.1.1 0 .1-.1.2-.2.2-.2 0-.3.1-.5 0-.3 0-.3.1-.3.3 0 .1 0 .2-.1.2-.7.1-1.3.2-1.9 0zm-7.8 1.3c-.1-.1-.2 0-.3-.1.2-.1.3-.2.6-.2h1.1c.2 0 .3.1.2.2s.2.3 0 .3h-.4c-.4 0-.8.2-1.1.1-.1 0-.2.1-.3 0 0-.1 0-.2.2-.3 0 .1.1.1 0 0zm9.4 1.4c-.2.1-.3.1-.5.1-.7.1-1.3 0-2 .1-.1 0-.2 0-.2.1 0 .2.1.1.2.1h.8c-.1.2-.2.1-.3.1-.2 0-.5 0-.7.1s-.2.3-.2.4c0 .2.2.1.3.1.2.1.5 0 .7.1.1 0 .2 0 .3.1 0 0-.1 0-.1.1h-1.1c-.2 0-.3.1-.4.2 0 .1 0 .2-.2.3l.3-1.1c0-.1.1-.2.1-.3s.1-.2.3-.2c.2-.1.5-.1.7-.1.6-.2 1.2-.1 2-.2-.1 0-.1 0 0 0zm11.3-1.8c-.4 0-.7-.1-1.1 0s-.9 0-1.3.2c-.2.1-.4-.1-.5-.2-.1-.2.1-.3.3-.3.7 0 1.3-.3 2-.1.2.1.4.2.6.4z" class="H"/><path d="M27.7 26.9c.1.2.2.4 0 .6s-.4.1-.6.1c-.1 0-.3-.1-.4-.1s-.1 0-.1-.1 0-.1.1-.2c.2-.1.5-.4 1-.3z" class="I"/><path d="M24.8 26.5c.2-.3-.1-.1-.2-.2.2 0 .5-.1.7-.1.4 0 .8-.1 1.2-.2h2.3c.1 0 .2 0 .2.1s-.1.1-.2.1c-.7-.3-1.4 0-2 .1-.7 0-1.3.1-2 .2zm18.4-1.8c.1.1.3 0 .5.1-.6.1-1.2 0-1.8 0v-.1c.1 0 .2-.1.3-.1s.2-.1.2-.1c0-.4.2-.2.4-.2h.7c.2 0 .2.1.2.2 0 .2-.1.1-.2.1-.1.1-.2.1-.3.1zm-9.3.9l-4.2.1c1.3 0 2.7-.4 4.2-.1zm1.4-2.6h.5c.1 0 .2 0 .2.1-.1.1.1.4-.1.4-.4 0-.8.1-1.2 0-.1 0-.1-.1-.2-.2-.1-.2 0-.2.1-.2.2-.1.5-.2.7-.1zm3.1 3c1 .1 2.1-.1 3 .4l-3-.4zm-4-7c-.5-.3-1-.3-1.5-.1-.1-.1-.2 0-.3-.1.4-.3.8-.3 1.2-.3s.7.2 1 .5h-.4zm.1 7c-.3.1-.6.1-.9 0-.3 0-.6-.1-.9 0-.1 0-.2 0-.2-.1.5-.2 1-.2 1.5-.1.1.1.3 0 .5.2zm1.2-.3c.8-.1 1.5 0 2.3.1-.8.2-1.6-.1-2.3-.1zm-.4-5.8c-.2-.2-.3-.3-.4-.5.1-.2.3-.2.5-.1s.1.4.2.6c-.1.1-.2 0-.3 0z" class="H"/><path d="M27.7 26.9c-.3 0-.6-.1-.9-.1.4-.2.7-.2 1.1-.2.1 0 .1.1.1.2-.1 0-.2.1-.3.1z" class="I"/><path d="M38.4 22.4c-.5.1-1 .1-1.5.2-.1 0-.2 0-.2-.1s.1-.1.2-.1h1.5zm-1.2 3.8c-.4.1-.9 0-1.3 0-.1 0-.3.1-.4-.1.5 0 1-.1 1.6 0 0 0 .1 0 .1.1zM31.7 18c-.1.2-.2.3-.3.4-.1-.1-.1 0-.1.1-.1 0-.3 0-.3-.1s.1-.2.2-.3c.2-.2.3-.2.5-.1zM44 24.2c.5-.1.7.3.9.6l-.9-.6zm-15.5 4.5c.1-.3.1-.5.2-.8 0-.1 0-.1.1-.1 0 .2-.1.5-.1.7 0 .1-.1.2-.2.2zm10.8-4c-.3.1-.6-.1-1-.1.4 0 .7 0 1 .1zm-6.8-5.4c-.1.1-.1.2-.2.2s-.3 0-.4-.1c.2 0 .3-.2.6-.1zm-.4.5c0 .1-.1.1-.1.2h-.3c0-.3.2-.4.4-.2zm-1 1.6c0 .1 0 .2-.1.2s-.2.1-.3-.1c0-.1 0-.2.1-.2s.2 0 .3.1zm-7.3 5.3h-1.6c.6-.1 1.1-.1 1.6 0zm-.2-3c-.1.3-.3.3-.5.3-.1 0-.1 0-.1-.1s.1-.1.1-.1c.2 0 .3 0 .5-.1zm12.9-4.1c-.1-.1-.1-.1-.1-.2h.1c.1 0 .3-.1.4.1-.1.1-.3 0-.4.1zm8.2 11.5c-.1 0-.1 0-.1-.1s.1-.2.2-.2.1 0 .1.1c0 .2-.1.2-.2.2zm-9.3-5c-.2 0-.5.1-.7-.1.2 0 .5 0 .7.1zM33 18.9c0 .1-.1.1-.2.2 0 0 0-.1-.1 0h-.4c.3-.2.5-.2.7-.2zm-4.5 6.2c-.2.1-.4.1-.6 0h.6zm8.5-3.3c-.2.1-.3.1-.5.1.1-.1.3-.1.5-.1zm-8.2 3.8c.2-.1.4-.1.5 0-.1.1-.3.1-.5 0zm16.7 1.3c.2-.1.2-.1.2 0s-.1.1-.2 0c0 .1 0 .1 0 0zm-13.8-6.6h-.3c.1 0 .2-.2.3 0zm-9.3 11.1c-.1.1-.2.1-.3 0 .1-.1.2-.1.3 0zm-1-3.4c.1-.1.2-.1.3 0-.1.1-.1 0-.3 0zM25 39.9c0-.2.1-.1.3 0-.2-.1-.3 0-.3 0z" class="H"/><path d="M30.4 27.3s.1 0 .1-.1c.2 0 .3 0 .5-.1.4-.1.8 0 1.2 0l.1.1c.1.1.2.1.3.1h.1v.1c-.6 0-1.1.4-1.7.2-.1 0-.2-.1-.2.1 0 .1.1.1.2.1.4 0 .8.1 1.1 0 .2-.1.1.2.2.3 0-.4.3-.3.5-.4s.5-.1.7-.1c.1 0 .3.1.5.1 0 .1-.2 0-.2.1.1.3 0 .4-.2.4h-.8c0 .1.2 0 .2.2-.7-.1-1.4.3-2.1.1 0 .1.1.1.1.1.5 0 1 .1 1.5.1.2 0 .3.1.4-.2h1c-.2.6-.8.3-1.1.4 0 .1.1.1.1.1.1 0 .1.1.1.2s-.1.1-.2.1c-.7.1-1.4.1-2 .1.2.1.4.1.3.4.2-.1.3 0 .5 0h.6c.1 0 .1 0 .1-.1 0-.3.3-.3.4-.3.4-.1.7-.1 1.1-.1.1 0 .3 0 .3-.2 0-.1 0-.1.1-.1.3-.2 1.5-.2 1.8 0-.4.2-.8.4-1.3.4-.2 0-.5 0-.7.1h1c.2 0 .3 0 .4.1s.1 0 .1 0c.1-.1.1-.1.2-.1.3.1.7-.1 1-.1h.1c.1-.3.4-.2.6-.2h.4c.1 0 .2 0 .2-.2s.2-.2.3-.2.1.1.1.2-.1.1-.1.1c-.2.1-.2.1 0 .2.1.1.3 0 .3.2s.1.2.2.2c.5 0 .9 0 1.4.1 0 .1-.1 0-.2.1.1.1.2 0 .2.1.1.2-.2 0-.2.3-.5 0-1.1 0-1.6.1.1.1.2.1.3.1a1.1 1.1 0 0 1 .8 0c.2.1.4-.2.6.1.1-.2.3-.1.5-.2.1 0 .2 0 .2-.2 0-.1 0-.2-.1-.3.4 0 .7.1 1.1 0 0 .1 0 .3-.1.3-.3 0-.2.2-.3.4h-.7c-.1 0-.2 0-.2.1s.1 0 .2 0h.4c0 .1.3.2.1.3-.1.1-.3.1-.5 0-.1 0-.3-.1-.4 0h-2c.2.1.3.1.4.1h.3v.1c.3.2.6.1.9.1v-.1h.2c.2.1.4 0 .5.1a.9.9 0 0 1 .5.1c-.2 0-.5 0-.7.1-.4-.1-.4-.1-.4.3h-1.1c-.1-.1-.2-.1-.2 0 .2.2.3.2.3.2h.1c0 .1 0 .3-.2.4.4.1.9 0 1.3.1 0 .1-.1 0-.1.2h1.1c-.3.1-.6.1-.8 0h-1.9c.2.1.3.1.3.1 0 .2 0 .3.2.3s.4.1.7 0c.2 0 .4 0 .7.1-.1.1-.3 0-.4.1 0 .1.3 0 .2.2h-1.8c.1.2.3.1.4.1 0 .1 0 .3.2.3.1 0 .3 0 .4.1-.3 0-.6 0-.9.2-.1.1-.2.1-.2.2-.2.3-.4.4-.7.4-.3-.1-.6-.1-1 0 .1.2.2.2-.1.4-.3.1-.6.1-.9.1h-1.2c.4.2.8.2 1.1.1.5 0 1 0 1.5-.2.3-.1.7-.2 1 .1h.1c.1 0 .1 0 .1.1s-.1.1-.2.1-.2 0-.2.2h-.3c-.2 0-.5-.1-.7.1-.2 0-.4 0-.5.1.1.1.2 0 .3.1-.2.1-.4 0-.5.1-.2.2-.4.1-.6.1h-.9c-.1 0-.2 0-.2.1s.2 0 .2.2c0 .1-.1.1-.2.1-.5.1-1 .1-1.5.1 0 0-.1 0-.1.1.1.1.2 0 .2.2 0 .1-.2.1-.3.1h-.5c-.5 0-1.2.2-1.6-.3l.1-.1c.2-.1.1-.1 0-.2-.1 0-.2 0-.2-.1-.2-.3-.4-.3-.6 0-.1.1-.3.1-.4 0s0-.2.1-.3 0-.2 0-.3c0 0 .1 0 .1.1s.1.2.2.2h.5c.2 0 .3-.1.3-.3-.4 0-.8-.1-1.2 0-.3 0-.4-.2-.6-.3.1 0 .1 0 .2-.1.4 0 .7-.2 1.1-.2.3 0 .6.1.6-.4H30c-.1 0-.2 0-.2-.1-.1-.2-.2-.2-.4-.1-.2.2-.4.1-.6-.1.1 0 .2-.1.3-.1.4 0 .5 0 .5-.3.1 0 .3.1.4 0 .1 0 .2 0 .4-.1h-1.5c-.2.3-.5 0-.7.1.1-.1.3.1.3-.1 0-.4.3-.3.5-.3s.3-.1.4-.3c0-.2.1-.2.3-.2.3 0 .6 0 .9-.1-.5-.1-1.1 0-1.6 0-.1 0-.3.1-.3.2s.1.2-.1.2c-.1 0-.3 0-.3-.1-.1-.3-.3-.2-.5-.2H27c-.1 0-.1 0-.2-.1h1.1c.2 0 .4-.1.3-.3h.5c.1.1.1 0 .1-.1v-.1c.2 0 .4.1.5-.1.1-.3.3-.2.5-.2.1 0 .2 0 .3-.1H29c-.2 0-.3 0-.2-.2h.1c.1 0 .3 0 .3-.1 0-.3.2-.2.4-.3.3 0 .7.1 1-.1h-.9c-.4 0-.8.2-1.2.2-.2 0-.3 0-.3.2h-.6c-.1-.1-.2-.1-.4 0h-.5c-.1-.1-.4 0-.4-.3l.1-.1c.2 0 .5.1.5-.3.1 0 .1 0 .2.1 0 0 0 .1.1.1 0 0 0-.1.1-.1.3.1.6 0 .9 0 .2 0 .3 0 .5-.2h-2.2c-.3-.1-.2-.2-.1-.4h.1c.5 0 1-.3 1.5-.2h.2c.1 0 .2 0 .2-.2.1 0 .2-.1.3-.2.1 0 .2 0 .4-.1-.4-.2-.7-.2-1.1-.1-.1 0-.1.1-.1.2h-.8c0-.1.1-.1.2-.2-.3.1-.4-.2-.6-.2.5-.1.9-.1 1.4-.1.2 0 .2-.1.2-.2.1 0 .2 0 .3-.1.2.1.4 0 .5 0 .1-.3.3-.2.5-.2h.6c.1 0 .2 0 .2-.1s.1-.2.1-.3h-.3c-.4 0-.9 0-1.3.1-.1 0-.1 0-.2-.1 0-.1.1-.1.1-.2s.1-.1.2-.1c.2 0 .3-.1.4-.3.2.2.4.2.6.2.3 0 .3 0 .5-.3-.4.1-.8 0-1.2 0-.1 0-.2 0-.3-.2-.1-.1.1-.1.2-.2 0-.1.2-.1.2-.1h.7c.3.1.4 0 .3-.2zm-1.1 2.6s-.1-.1-.1 0c0-.1 0-.1.1 0 .4.2.9.1 1.3.1v-.1h-1.3zm7.6 0c-.1-.1-.1-.1-.2 0h.2c.4.2.9.1 1.3.1v-.1h-1.3zM38 34h-1.3c-.2 0-.2.1-.1.2-.4.3-.8.3-1.3.2h-.8c-.1 0-.1 0-.2.1.5 0 1 .1 1.5 0 .6 0 1.3-.3 1.9-.2.3 0 .5 0 .5-.3v-.1c-.1.1-.2.1-.2.1zm-1.1-3.8c-.4-.1-.8.1-1.3.1-.4 0-.9 0-1.3.1.8 0 1.7.2 2.6-.2zm-2.5 3.4c.3.2 1.8.2 2.1 0h-2.1zm-1.9 1.7c-.6-.1-1.1 0-1.7-.1-.1 0-.1 0-.1.1s.1.1.1.1c.4 0 .7.1 1.1 0 .3 0 .3 0 .3.3.1-.2.1-.2.3-.4zm4-3.4h-1.9c.6.1 1.3.2 1.9 0zm-5.7-1.6c.6.1 1.3.1 2 0-.7-.1-1.4 0-2 0zm6.1.8c-.8.1-1.6 0-2.4.1.8 0 1.6.2 2.4-.1zm-6.2 2.5c.6.1 1.3.2 1.9 0h-1.9zm1.5 2.9c0-.3.2-.2.4-.4h-1.8c.4.1.8.2 1.1.2.2 0 .3 0 .3.2zm2.3-3.8c.6.1 1.2.1 1.9.1v-.1h-1.9zm3.8-.4c-.6-.1-1.2 0-1.8.1.6-.1 1.2-.1 1.8-.1zm-5.6-.4H31c.5.1 1.1.1 1.7 0zm5.6-1.2c-.5-.1-1.1 0-1.6-.1.5.3 1 .2 1.6.1zm-7.5 3.8c.6.1 1.2.1 1.8 0H31c-.1-.1-.2-.1-.2 0zm6.1-1.4c.6.2 1.2.2 1.3 0h-1.3zm-4.3-.4h-1.7v.1c.5-.1 1.1.1 1.7-.1zm.2-2.1c0 .1 0 .1 0 0 .5.1 1 .1 1.5 0h-1.5zm-2 .6c.6.1 1.2.2 1.8 0h-1.8zm3.3 3.7h-1.3c.4.1.9.1 1.3 0zm2.9-3.5c.4.1.9.2 1.3 0H37zm-4.3 4.4c.5 0 .9.2 1.4 0h-1.4zm.3-5.9c.4.1.8.2 1.3 0H33zm1.3 2.4h-1.4c.4 0 .9.1 1.4 0zm-.2.9h-1.3 1.3zm4.4-1.3c0 .1.1.1 0 0 .1.1.2 0 .2 0h-.2z" class="K"/><g class="I"><path d="M40.3 32.7c.3 0 .6.1.8 0H40c0-.1.1 0 .1-.2-.4-.1-.9-.1-1.3-.1.2-.1.2-.2.2-.4.4-.1.8.1 1.2-.1H40c0-.4.1-.5.4-.3.5.1 1 0 1.5.1v-.1h-.8c-.1-.1-.3-.1-.5-.1s-.4.1-.5-.1c.1 0 .1-.1.2-.1.1-.1.3-.1.4 0 .2 0 .4.1.5 0s-.1-.2-.1-.3c.3-.1.6 0 1-.1-.3-.1-.5 0-.7-.1.1-.1 0-.4.3-.4 0 0 0-.2.1-.3.6-.1 1.1-.2 1.7-.1.1 0 .2 0 .2.1s-.1.1-.2.1c-.5.1-1 .4-1.6.4l1.8.3c-.1.1-.2.1-.2.2s-.1.1-.1.1c-.4 0-.8.2-1.2.1-.1 0-.3 0-.4.2.6 0 1.2.1 1.8.1-.5.6-1.1.2-1.6.4 0 .1.1 0 .1.1-.1.1-.4 0-.3.3h-.2c-.4 0-.7.1-1.1.1.4 0 .7.2 1.1.1.3-.1.6.1 1-.1.1 0 .2.1.3.2s-.1.1-.2.2c-.3.1-.7.1-1.1.1.1.1.2.2 0 .3-.3.1-.6.1-.9.1.5 0 .9.1 1.4 0 .4-.1.9 0 1.4-.1-.3.1-.5 0-.6.3 0 .1-.2 0-.3.1-.2 0-.4-.1-.5.2-.3 0-.5.4-.9.3h-.6c.4.1.9 0 1.1.4-.4.3-.8.5-1.3.4.2.3 0 .3-.2.3-.6.2-1.2.1-1.8.2.4.1.7.2 1.1.1.2 0 .3 0 .3.3 0-.2.1-.3.3-.3.4-.1.7-.2 1.2-.1-.2.1-.4.1-.3.4 0 .1-.1.1-.2.1-.3 0-.5 0-.8.1.2.1.4 0 .5.1-.7.2-1.4.3-2.1.2.2.2.4.1.4.3h.1c.3-.2.6.2.9.1 0 0 .1 0 .1.1v.1c-.3-.1-.4.2-.6.2h-.9c.1.1.4.1.4.3 0 .1.1 0 .2.1.4.1.9 0 1.4.2h-.3c.1.1.2 0 .2.1-.4.4-1 .2-1.5.2-.1 0-.2 0-.2.1s.1.1.2.1c.3-.1.7.1 1 0 .1 0 .1.1.1.1.1.1-.1.2-.1.3.1.2-.1.1-.2.1l-2.4.2c.8.1 1.7.1 2.5.3-.2.1-.4.2-.6.1H39c-.7 0-1.4-.2-2.1-.2-.1 0-.1.1-.2.1-.3.1-.6.1-.8.3-.1.1-.3.1-.4.1-.4 0-.8-.1-1.1 0-.1 0-.3 0-.2.2 0 .1-.1.1-.2.1-.4 0-.8.1-1.2.1.8.2 1.6-.1 2.3.2-.3 0-.7.1-1 .1.1.1.2 0 .4.1 0 .1-.1.1-.2.1-.3 0-.6.2-.8.4-.1.1-.2 0-.3 0-.3 0-.6 0-.8-.2h.1c0-.1.1-.1.1-.2h-2.1v-.1h.4c-.1-.1-.2-.1-.3-.1s-.3 0-.1-.2c.1-.1 0-.1-.1-.1h-1.6c-.2 0-.2-.1-.2-.2h.3c.4-.2.9-.2 1.4-.2.2 0 .1-.3.3-.3-.5 0-.9 0-1.4-.1.3-.2.5 0 .8-.1-.2-.1-.3 0-.5 0-.1 0-.2 0-.2-.2s.1-.2.2-.2h.3c0-.1-.1-.1-.2-.1H29s-.2-.1-.1.1c-.3-.1-.5.3-.8.3-.2-.1-.5 0-.8 0-.1 0-.4.1-.3-.2 0-.1-.1 0-.1 0h-.3v-.1c.2 0 .4-.1.6-.1s.4-.1.6-.1.4-.2.6-.1.4-.2.7-.2c-.2-.1-.4-.1-.5-.1-.4.2-.9.1-1.4.1h-.6c-.2 0-.2-.1-.2-.2.6-.5 1.3-.3 2-.3-.1-.1-.2-.2.1-.2.2 0 .3 0 .5-.1.2 0 .2-.2.2-.3.1-.2.2-.2.3-.1.2.2.4.1.7.1.2 0 .1-.3.2-.3.4.6 1 .3 1.6.3h.5c.1 0 .2.1.3-.1s-.1-.1-.2-.2c0-.1.1-.1.1-.1.5 0 1 0 1.5-.1.1 0 .2 0 .2-.1s-.1-.1-.2-.2c0-.1.1-.1.2-.1h.9c.2 0 .4.1.6-.1.1-.1.4 0 .5-.1-.1-.1-.2 0-.3-.1.2-.1.3-.1.5-.1.4 0 .9.1 1.4 0-.1-.1-.2 0-.3-.1 0-.1.1-.2.2-.2s.2 0 .2-.1-.1-.1-.1-.1h-.1c-.3-.4-.7-.3-1-.1-.5.2-1 .2-1.5.2-.4 0-.8 0-1.1-.1h1.2c.3 0 .6 0 .9-.1.2-.1.2-.2.1-.4.3-.1.6-.1 1 0 .3.1.5 0 .7-.4 0-.1.1-.1.2-.2.3-.2.5-.2.9-.2-.1-.2-.3-.2-.3-.1-.3.1-.2-.1-.2-.3h.6c.3 0 .6.1.9 0 0 0 .1 0 .1-.1h-.1c.1-.2-.2-.1-.2-.2.1-.1.3 0 .4-.1-.2 0-.5-.1-.7-.1-.2.1-.5 0-.7 0s-.3-.1-.2-.3h.3c.3-.1.7 0 1.1-.2zm-11 4.8c.4.1.9.1 1.3 0 .1 0 .2 0 .3.1-.1.1-.2 0-.3.1h.5c.2.2.4.1.6.1h.6c.2 0 .4 0 .6.1-.1 0-.3 0-.3.2s.2 0 .3.1h.1c0 .1.1.1.2.1h1.1c.1 0 .1 0 .2-.1h-.7c.1-.3.2-.4.5-.4h1c0 .1 0 .1.1.1.3 0 .6 0 .8.1.1 0 .3 0 .4-.2h-.8c0-.1 0-.1.1-.2.1 0 .2-.1.3-.2s0-.1 0-.1c0-.4.4-.2.6-.3h-.6c-.3.1-.7.1-1 0 .2-.3.6-.3.9-.4-.4-.2-.7-.2-.9-.2s-.5 0-.8.1c-.1 0-.3 0-.3.2s-.1.2-.2.2h-.6c-.2 0-.5.1-.7.2s-.3.3-.5.3l-2.8.1c-.1-.1-.1-.1-.2 0h.2zm7.6 0s-.1 0 0 0c.3.2 1.1.2 1.4 0h-1.4zm.3-1c-.1.2.1.1 0 0l.5.1c.2 0 .4 0 .5-.1-.3 0-.6.1-1 0 .2-.2.4-.4.6-.4-.3 0-.6-.1-.9 0a1.38 1.38 0 0 0 .3.4zm-.3 2.3h-2.4c.8.1 1.6.2 2.4 0zm3-4c.1-.2.2-.3.3-.4h-1.8c.4.2.7.1 1.1.1.2.1.4 0 .4.3zm-7.3 4.7h-1.7c.6.1 1.2.1 1.7 0zm-1.8-.7s0 .1 0 0c.6 0 1.2.2 1.8 0h-1.8zm6-.4h1.4c-.4-.1-.9-.1-1.4 0zm5.9-8.3s-.1 0 0 0zm-3.1 4s0-.1 0 0c-.1-.1-.1 0 0 0zm-13-2.5c0 .2.3.2.4.3-.1.1 0 .1.1.1.6.1 1.2 0 1.7 0-.1.2 0 .3.2.2h1.1c-.1.1-.2.1-.3.1-.2 0-.4 0-.5.2s-.3.1-.5.1c-.1 0-.3-.1-.3.1h-.1c-.5-.2-1-.1-1.5-.1v.1h1.3c0 .3-.1.3-.3.3h-1.1c0 .2.1.1.2.1h.8c.2 0 .4-.1.5.2 0 .1.2.1.3.1.2 0 .1-.1.1-.2.1-.1.3-.2.3-.2.5 0 1.1-.1 1.6 0-.3.1-.6.1-.9.1-.2 0-.3 0-.3.2s-.2.3-.4.3-.5-.1-.5.3c0 .2-.2 0-.3.1.2 0 .5.2.7-.1.1.3.3.1.5.1 0 .3-.1.4-.5.3-.2-.1-.4 0-.6 0h-1.1c-.1 0-.4-.2-.3.2-.5-.1-.8.3-1.3.2-.1 0-.2-.2-.3-.2s0-.1.1-.1c.5-.3 1.1-.2 1.7-.4h-1c-.3 0-.7 0-1-.1-.1 0-.2 0-.2-.1s0-.1.1-.2c.1 0 .1-.1.2-.1 0-.1-.1-.1-.2-.1-.3 0-.6 0-1-.1-.1 0-.1 0-.2-.2-.1-.4.2-.2.3-.2.2 0 .5.1.5-.3.1.1 0 .2.1.3.1-.2.2-.2.4-.2-.1-.1-.2 0-.3-.1.1 0 .1-.1.2-.1 0-.1 0-.1-.1-.1h-1.3c-.1 0-.2-.1-.2-.2s.1-.1.2-.1h.5c-.2-.2-.2-.3 0-.3.2-.1.3-.1.5-.1.2.1.3 0 .4-.1h-1.7c-.2 0-.3-.1-.2-.3 0-.1.1-.2.3-.3.4-.1.8.1 1.2-.1.1-.1.3.1.5-.1h-1.8c-.4 0-.4 0-.3-.4v-.1c-.3-.3 0-.6.1-.8h-.3 1.7c.1 0 .3 0 .3-.2.3 0 .5-.3.7-.3s.5-.1.7 0c.2 0 .4.1.4-.2 0-.1.1-.1.1-.2-.5 0-1-.1-1.4 0-.3.1-.5.2-.8.1-.3 0-.7-.1-1-.1.1-.1.3-.1.5-.1.4.1.7-.2 1-.3.1 0 .2-.1.4-.1h.1c.2-.4.5-.2.8-.2h.4c0-.1-.1-.1-.1-.1-.5 0-1.1-.1-1.6 0-.1 0-.2 0-.2-.1s-.1-.2.1-.2c.5-.1 1.1-.2 1.7-.1 0 .1-.2 0-.2.2.2.1.4.1.6 0h.5c.1 0 .2 0 .2.2.1.4-.1.6-.5.6h-.4c.1.1.3.1.4.1.2 0 .4 0 .6.2s.7.1.8-.1c.1 0 .2-.1.2-.2 0-.3.1-.5.1-.7.1 0 .2-.2.2-.3.1-.2.2-.3.4-.2.4.1.7 0 1.1 0 0 .2 0 .3-.2.2h-.7c-.1 0-.2 0-.2.1s-.2.1-.2.2c.1.1.2.2.3.2.4 0 .8.1 1.2 0-.2.4-.2.3-.5.3-.2 0-.5.1-.6-.2-.1.2-.2.4-.4.3-.1 0-.2 0-.2.1s-.1.1-.1.2.1.1.2.1c.4-.1.9-.1 1.3-.1h.3c0 .1-.1.2-.1.3s-.1.1-.2.1h-.6c-.2 0-.4-.1-.5.2 0 .1-.3.1-.5 0-.3-.2-.6-.1-.8-.1-.3 0-.6.1-.9 0-.2 0-.4 0-.6.1h.8c.4 0 .8 0 1.2.1.1.2 0 .2-.2.2-.5 0-.9-.1-1.4.1.2 0 .3.3.6.2-.1.1-.2.1-.2.2h-.1a.45.45 0 0 0-.5 0s-.1.1 0 .1c.2.1.4.1.5 0 .5-.1 1 0 1.5 0 0 .1 0 .2-.2.2h-.2c-.5-.1-1 .1-1.5.2 0-.1-.1-.1-.2-.1h-.5c.1-.1 0-.3.2-.3.3 0 .3-.2.3-.4h.1v-.1h-1.1c-.2 0-.1 0 0 .1 0 .5 0 .5-.3.4-.1-.1-.1-.1-.2-.1h-1.6c-.1 0-.2 0-.2.1.7.1 1.3.1 2 0 0 .2.1.1.2.2 0 .2.2.1.3.1h1.3c-.1.2-.2.3.1.4.1.1.2.1.4.1-.5.7-.9.6-1.1.7-.4-.2-.8-.1-1.3 0h1.3zm1.7 2c-.2 0-.4 0-.6-.1-.3-.1-.6 0-.9 0-.1 0-.1.1 0 .1.2 0 .1.2.2.4 0-.3.2-.3.4-.3.3 0 .6.1.9-.1zm-1.7-1.3h-1.3c.4 0 .8.1 1.3 0zm-.1.9h-1.2c.4 0 .8.1 1.2 0zm.4-3.1h-.3.3zm1.7 4.5c.2.2.3.3.6.1.1-.1.3-.2.4.1 0 .1.1.1.2.1h.8c0 .4-.3.4-.6.4-.4-.1-.7.1-1.1.2-.1-.3-.4-.2-.6-.2-.5.1-1.1 0-1.6 0-.1 0-.2-.1-.2-.2s.1-.1.2-.1c.2 0 .4 0 .4-.3 0-.1.1-.1.2-.1h1.3z"/><path d="M29.4 35.8v.3c-.1.1-.2.2-.1.3s.3.1.4 0c.2-.3.4-.3.6 0 0 .1.2 0 .2.1.1 0 .2.1 0 .2-.3-.1-.6 0-.9 0s-.6 0-.9.1-.6.1-.8.2c-.4.1-.7-.1-1 0 .1-.1.2-.2.4-.2h1.1c.1-.2.3-.3.5-.4 0 0 .1 0 .1-.1s-.1-.1-.1 0c-.4 0-.8 0-1.2.1s-.8 0-1.1 0c-.1 0-.1-.1-.1-.2s.1 0 .2-.1c.5-.2 1.1-.1 1.5-.3h.1c0 .1 0 .2.1.1.1 0 .1-.1.1-.1 0-.1.1-.2.2-.2.2.1.3.3.7.2-.1 0-.1 0 0 0zm9.9-8.2c0-.2-.2-.3-.1-.5 0-.1 0-.2.1-.2.2 0 .4-.1.6 0 .1 0 .2 0 .3-.1.3-.1.7 0 1 0 .1 0 .2.1.2.2s-.1.1-.2.1h-.9c0 .1.2 0 .2.2 0 .1-.1.1-.2.1-.3.3-.7.2-1 .2zm.7 2.7c0-.3.3-.1.4-.2 0-.1-.2 0-.2-.1s.1 0 .2-.1c-.5-.1-.9-.1-1.4-.1-.2 0-.3-.1-.2-.2.3-.1.6-.1.8-.1s.3 0 .3.2c.4-.4.8-.3 1.2-.3.2 0 .3 0 .4.2h-.4c.1.2.1.2.6.3h-.9v.1c0 .1 0 .2.1.3 0 .1 0 .2-.2.2-.3-.2-.5-.2-.7-.2zm-16.8-3c.3-.1.5-.1.8-.2.4-.1.7.2 1.1.1.1 0 .2 0 .1.1 0 .1-.1.1-.1.1-.4-.1-.8.1-1.3 0-.2 0-.4 0-.6-.1zm.2.8c.3-.2.7.2 1-.2.1.5.5.2.8.4-.4 0-.7-.1-.9 0s-.4 0-.6 0-.1-.2-.3-.2z"/></g><path d="M29 39.6h-2c0-.1.1-.1.1-.1h1.7s.1 0 .2.1zm7.5 1.7c-.6.1-1.3.1-1.9.1.2-.2 1.5-.2 1.9-.1zm-7.6-2.5c-.7.2-1.4.1-2 0h2zm11.4.7c-.5.1-.9.1-1.4.1v-.1h1.4z" class="J"/><path d="M39.9 26.7c-.2.1-.4.1-.7 0 0 0-.1-.1 0-.1 0-.1.1-.1.1-.1.2 0 .4.2.6.2z" class="I"/><path d="M34.2 41.8h-1.4 1.4z" class="J"/><path d="M35.4 40.1c-.1 0 0-.1 0 0 0-.1.1 0 0 0z" class="I"/><path d="M38.7 39.6c-.1-.1-.1-.1 0 0 0-.1 0-.1 0 0z" class="J"/><path d="M37.3 28.9c-.3-.1-.6.1-1 .1-.1 0-.2 0-.2-.1s.1-.1.1-.1c.2-.2.4-.2.7-.3.2-.1.5 0 .7 0h.4c.2 0 .1.1.2.1 0 .1 0 .1-.1.2-.2.1-.5 0-.8.1zm-1.3-.7c-.5.4-1.1.3-1.7.3-.1 0-.2-.1-.2-.2s.1-.1.2-.1c.2 0 .4-.1.6-.1.4 0 .7.1 1.1.1z" class="K"/><path d="M34.4 27.7c.6.1 1.3 0 2 0-.4.1-1.8.1-2 0zm2.2-.5h.2v.1s-.1 0-.2-.1z" class="H"/><path d="M31.3 18.5c0-.1 0-.2 0 0 .1-.1.1 0 0 0z" class="J"/><path d="M33.6 27.2h-.4c0-.3-.3-.2-.5-.2.4-.3.9-.1 1.3-.1-.2 0-.4 0-.4.3z" class="K"/><path d="M32.3 27.2s-.1 0-.1-.1c0-.2 0-.3-.2-.2h-.9c-.1 0-.2-.1-.3-.1h1.9c-.2.1-.5.1-.4.4zm1.8-.7h-1.3 1.3z" class="H"/><path d="M38 34h.2v.1c0 .4-.3.4-.5.3-.7-.1-1.3.2-1.9.2-.5 0-1-.1-1.5 0 0-.2.1-.1.2-.1h.8c.5 0 .9 0 1.3-.2-.1-.1-.1-.2.1-.2h.3c.2.1.7.1 1-.1zm-1.1-3.8c-.9.4-1.7.2-2.6.2.4-.2.9-.1 1.3-.1s.8-.2 1.3-.1zm-8.6 1.6c0-.2.1-.2.3-.2.4 0 .8-.2 1.2-.2h.9c-.4.2-.7.1-1 .1-.2 0-.4-.1-.4.3 0 .1-.2.1-.3.1 0-.1-.1-.1-.2-.1h-.5zm6.1 1.8h2.1c-.3.2-1.8.2-2.1 0z" class="I"/><path d="M28.6 30.4c-.5 0-1-.1-1.5 0h-.5c-.1 0 0-.1 0-.1h2.3c-.1.1-.2.1-.3.1z" class="H"/><path d="M32.5 35.3c-.2.2-.2.2-.3.4 0-.2-.1-.3-.3-.3h-1.1c-.1 0-.1 0-.1-.1s.1-.1.1-.1c.6.1 1.2 0 1.7.1zm4-3.4c-.6.2-1.3.1-1.9 0h1.9zm-5.7-1.6c.7 0 1.3-.1 2 0-.7.1-1.4.1-2 0z" class="I"/><path d="M40 30.3a.9.9 0 0 1 .5.1c-.1.1-.4 0-.5.2-.1-.3-.4-.1-.6-.1a1.1 1.1 0 0 0-.8 0c-.1 0-.2 0-.3-.1.7-.1 1.2-.1 1.7-.1z" class="H"/><path d="M36.9 31.1c-.8.2-1.6.1-2.4.1.8-.1 1.6 0 2.4-.1zm-6.2 2.5h1.9c-.6.2-1.2.1-1.9 0z" class="I"/><path d="M27.2 31.2c-.1.1-.3.1-.4-.1H29c-.2.1-.4.2-.5.2h-1c-.2 0-.3-.1-.3-.1zm13 2.3c.1.1.1.1 0 0-.3.2-.6.2-.9.1h-.6c-.1 0-.2 0-.4-.1h1.9z" class="H"/><path d="M32.2 36.5c0-.2-.1-.2-.3-.2-.4 0-.8-.1-1.1-.2h1.8c-.1.2-.4.2-.4.4z" class="I"/><path d="M28.4 29.6c-.4 0-.8-.1-1.2-.1h-.8c.2-.1.4-.1.6-.1.3.1.6 0 .9 0s.6-.1.8.1c-.1 0-.2 0-.3.1zm-.1 2.2h.4c.1 0 .2 0 .2.1h-.1c-.6 0-1.2.1-1.7 0-.1.1-.2.1-.1-.1h1.3c-.1 0 0 0 0 0z" class="H"/><path d="M28.9 30.3H28c0-.1 0-.2.1-.2.4-.1.7-.1 1.1.1-.1.1-.2.1-.3.1zm5.6 2.4h1.9v.1c-.7 0-1.3 0-1.9-.1zm3.8-.4c-.6.1-1.2 0-1.8.1.6-.1 1.2-.2 1.8-.1zm-7.9 3.5c0 .2-.1.3-.3.3h-.5c-.1 0-.2-.1-.2-.2.4-.1.7 0 1-.1zm2.3-3.9c-.6.1-1.2.1-1.7 0h1.7zm5.6-1.2c-.5 0-1.1.1-1.6-.1.5.1 1 .1 1.6.1zm-7.5 3.8h1.7c-.5.1-1.1.1-1.7 0zm6.1-1.4h1.3c-.1.2-.7.2-1.3 0z" class="I"/><path d="M41.4 30.6c.2.1.4 0 .7.1-.4.1-.7 0-1 .1h-.6c0-.1.1-.1.2-.1.2-.1.4-.1.7-.1zm-14.7.1h-1.3c-.1 0-.2 0-.3-.1h1.4c.1 0 .2 0 .2.1z" class="H"/><path d="M32.6 32.7c-.6.2-1.2 0-1.7.1v-.1h1.7zm.2-2.1h1.5c-.5.2-1 .1-1.5 0 0 .1 0 .1 0 0z" class="I"/><path d="M40.4 31.1c-.1 0-.1.1-.2.1H40c-.1 0-.1-.1-.2-.1-.2.1-.5 0-.7 0-.1-.1-.2-.1-.3 0s-.2 0-.4-.1c.7.1 1.3.1 2 .1z" class="H"/><path d="M30.8 31.2h1.8c-.6.1-1.2 0-1.8 0z" class="I"/><path d="M28.1 32.8h-1.3v-.1c.5 0 1-.1 1.5.1h-.2zm1.3 1.4c-.2 0-.4.2-.5-.1.4 0 .8-.1 1.3.1-.2.1-.3 0-.4.1-.1-.1-.3-.1-.4-.1zm10.9-1.5c-.4.2-.8.1-1.2.1h-.3c-.1 0-.2 0-.3-.1h1.8zm.9-1.3h.8v.1c-.5 0-1 .1-1.5-.1.2.1.5.1.7 0zm-1.1.4h.2c-.4.2-.8 0-1.2.1H39v-.1h1.1z" class="H"/><path d="M39.1 31.3h.7c.1 0 .1 0 .2.1v.1c-.3-.1-.6 0-.9-.2zm-5 3.6c-.4.1-.9.1-1.3 0h1.3zm2.9-3.5h1.3c-.5.2-.9.2-1.3 0zm-4.3 4.4h1.4c-.4.2-.9.1-1.4 0zm4.2-5.9h1.3v.1c-.4 0-.8.1-1.3-.1z" class="I"/><path d="M37.9 35.7c.1 0 .2 0 .3.1-.5.1-.9.1-1.4 0 .2-.1.4 0 .7-.1h.4z" class="H"/><path d="M29.3 29.9h1.3v.1c-.5 0-.9.1-1.3-.1z" class="I"/><path d="M38 34c-.2.2-.8.2-1 0h1zm-11.4-2.4h-1.3c.4-.1.9-.2 1.3 0 0-.1 0-.1 0 0zm3.8 4.2c-.3.1-.6 0-.9.1l-.1-.1h-.1c.4-.1.8-.1 1.1 0z" class="H"/><path d="M33 29.9h1.3c-.5.1-.9.1-1.3 0zm1.3 2.4c-.5.1-.9 0-1.4 0h1.4zm-.2.9c-.4.1-.9 0-1.3 0h1.3zm4.9-1.4v.1c-.1 0-.2 0-.2-.1h.2zm-.5.1c.1-.1.2 0 .2 0s-.1.1-.2 0c.1.1 0 .1 0 0z" class="I"/><path d="M28.5 32.8c0-.2.2-.1.3-.1v.1s-.1 0-.1.1c-.1-.1-.1-.1-.2-.1z" class="H"/><path d="M27.8 31.8h-.4.4zm.9 1l.1-.1c0 .1 0 .2-.1.1zm8.2-2.9h-.2c.1-.1.2-.1.2 0zm-9.5 1.4h.1s0 .1-.1 0c0 .1 0 0 0 0zm1.9-1.4h-.1c0-.1 0-.1.1 0zm-1.2 2c0-.1 0-.1 0 0z" class="I"/><path d="M32.9 38.3c-.1 0-.1 0 0 0-.2 0-.4.1-.4-.1s.2-.1.3-.2c-.2-.1-.4-.1-.6-.1h-.6c-.2 0-.4.1-.6-.1-.1-.1-.3 0-.5 0 .1-.1.2 0 .3-.1-.1-.1-.2-.1-.3-.1h-1.3v-.1h2.7c.3 0 .3-.2.5-.3s.5-.2.7-.2h.6c.1 0 .2 0 .2-.2s.2-.1.3-.2c.3-.1.5-.1.8-.1s.6 0 .9.2c-.4.2-.7.1-.9.4h-.7c-.2-.1-.3 0-.4.1h.4c-.2.1-.5 0-.7.1-.1 0-.2 0-.2.1s.1.1.2.1c.2 0 .4-.1.6.1h-1.3c.4.1.9.2 1.3 0 .6 0 1.1-.1 1.7-.1h.2c.1 0 .2 0 0 .1-.1.1-.2.1-.3.2-.1 0-.1.1-.1.2h-1.5c-.3 0-.4.1-.5.4-.3-.1-.6-.1-.8-.1z" class="K"/><path d="M36.9 38.8c-.8.2-1.6.2-2.4 0h2.4zm-2.5-1.7h1.7a.9.9 0 0 1 .5.1c-.2.1-.6-.1-.6.3h-.2c0-.1 0-.3-.1-.3-.4 0-.8-.1-1.3-.1 0 .1 0 .1 0 0zm5.5-2.3c0-.3-.2-.3-.4-.3-.4 0-.7.1-1.1-.1h1.8c-.1.1-.2.3-.3.4z" class="H"/><path d="M37.2 36.5c-.1-.1-.1-.3-.2-.4.3-.1.6 0 .9 0-.3.1-.4.2-.5.4h-.2z" class="K"/><path d="M37.2 36.5h.2c.3.1.6-.1.9 0-.1.1-.3.2-.5.1h-.4c-.2.1-.3.1-.2-.1zm-4.6 3c-.6.1-1.1.1-1.7 0h1.7zm-1.8-.7h1.8c-.6.2-1.2 0-1.8 0 0 .1 0 0 0 0zm4.4-.9h1.3c-.1.2-.2.2-.4.2-.3 0-.6 0-.8-.1-.1 0-.1 0-.1-.1zm1.6.5c.5-.1.9-.1 1.4 0h-1.4zm-3.9-.1h1.5c0 .2-.1.1-.2.1h-1.1c-.1 0-.2 0-.2-.1zm4-.8h1.4c-.3.2-1.1.2-1.4 0zm-7.6 0h1.3c-.4.1-.9.1-1.3 0zm0-.1c0 .1 0 .1 0 0-.1.1-.1.1-.2 0h.2zm13.4-7.3c-.1 0 0 0 0 0zm-5.8 7.4c-.1 0 0 0 0 0z" class="H"/><path d="M39.6 34.1c-.1 0-.1-.1 0 0 0-.1 0 0 0 0zM26 30.6h-.9c-.1-.1-.2-.1-.2-.2h.1c.3.1.3 0 .3-.4h.6c.1 0 .2.3.2 0h.2c0 .2 0 .4-.3.4 0-.1.1.1 0 .2z" class="K"/><path d="M28.3 33.6c-.3.2-.6.1-.9.1-.2 0-.4 0-.4.3-.1-.2-.1-.3-.2-.4-.1 0-.1-.1 0-.1.3 0 .6-.1.9 0 .2.2.4.1.6.1zM25 30.4c-.7.1-1.4.1-2 0 .1-.1.1-.1.2-.1h1.6c.1 0 .2 0 .2.1zm1.4-.5h-1c-.1-.1-.1-.1 0-.1h1.1c0 .1 0 .1-.1.1zm.2 2.4c-.4.1-.9 0-1.3 0h1.3zm-.1.9c-.4.1-.8 0-1.2 0h1.2z" class="H"/><path d="M27.1 30.3h-.5a.45.45 0 0 1 .5 0zm-.2-.2h-.3c.1-.1.2-.1.3 0z" class="K"/><g class="I"><path d="M34.4 37.2c.4-.1.9.1 1.3 0 .2 0 .1.2.1.3-.6 0-1.1 0-1.7.1-.2-.1-.4 0-.6-.1-.1 0-.2 0-.2-.1s.1-.1.2-.1c.4-.1.7 0 .9-.1z"/><path d="M34.3 37.5c-.4.2-.9.1-1.3 0h1.3zm.1-.4c-.1.1-.3.1-.4.1.2-.1.3-.2.4-.1zM26 30c.1-.1.2-.1.2 0 .1.3-.1 0-.2 0z"/></g></svg>