<svg xmlns="http://www.w3.org/2000/svg" width="62.77" height="62.77" viewBox="0 0 62.77 62.77"><defs><style>.a{fill:none;}.b{fill:#74b300;}</style></defs><path class="a" d="M0,0H62.77V62.77H0Z"/><path class="b" d="M39.243,17.065a15.625,15.625,0,0,0-11.089-4.6V28.154L17.065,39.243A15.683,15.683,0,1,0,39.243,17.065ZM28.154,2A26.154,26.154,0,1,0,54.308,28.154,26.164,26.164,0,0,0,28.154,2Zm0,47.077A20.923,20.923,0,1,1,49.077,28.154,20.917,20.917,0,0,1,28.154,49.077Z" transform="translate(3.231 3.231)"/></svg>