<svg xmlns="http://www.w3.org/2000/svg" width="68.201" height="68.201" viewBox="0 0 68.201 68.201"><defs><style>.a{fill:none;}.b{fill:#74b300;}</style></defs><path class="a" d="M0,0H68.2V68.2H0Z"/><path class="b" d="M53.151,4H7.683A5.64,5.64,0,0,0,2.028,9.683L2,43.784a5.664,5.664,0,0,0,5.683,5.683H53.151a5.664,5.664,0,0,0,5.683-5.683V9.683A5.664,5.664,0,0,0,53.151,4ZM50.309,43.784H10.525a2.85,2.85,0,0,1-2.842-2.842V26.734H53.151V40.942A2.85,2.85,0,0,1,50.309,43.784Zm2.842-28.417H7.683V12.525a2.85,2.85,0,0,1,2.842-2.842H50.309a2.85,2.85,0,0,1,2.842,2.842Z" transform="translate(3.683 7.367)"/></svg>