<svg xmlns="http://www.w3.org/2000/svg" width="71" height="71" viewBox="0 0 71 71"><defs><style>.a{fill:none;}.b{fill:#ff1744;}</style></defs><path class="a" d="M0,0H71V71H0Z"/><path class="b" d="M25.708,2A20.731,20.731,0,0,0,5,22.708C5,35.045,18.076,52.055,23.43,58.534a2.937,2.937,0,0,0,4.526,0c5.384-6.479,18.46-23.489,18.46-35.825A20.731,20.731,0,0,0,25.708,2Zm12.75,18.223L23.282,35.4a2.946,2.946,0,0,1-4.171,0l-6.124-6.124a2.97,2.97,0,0,1,4.2-4.2L21.212,29.1,34.287,16.023a2.96,2.96,0,1,1,4.171,4.2Z" transform="translate(9.792 3.917)"/></svg>